<svg xmlns="http://www.w3.org/2000/svg" xmlns:xlink="http://www.w3.org/1999/xlink"><defs><style>
    .sprite-symbol-usage {display: none;}
    .sprite-symbol-usage:target {display: inline;}
  </style><symbol class="logo" fill="none" viewBox="0 0 227 59" id="logo"><path class="logo__symbol" d="M1.873 0h6.341c.497 0 .973.196 1.324.545.351.35.549.823.549 1.317v19.323l13.58-8.522a1.881 1.881 0 012.193.138L44.51 28.164a1.857 1.857 0 01.696 1.433v19.87c-.002.493-.2.966-.55 1.315-.351.348-.826.545-1.322.547H20.2c-.497 0-.973-.196-1.324-.545a1.858 1.858 0 01-.549-1.317V36.659a1.848 1.848 0 011.155-1.723c.228-.093.472-.14.718-.14h6.606a1.881 1.881 0 011.324.546 1.86 1.86 0 01.549 1.317v6.68h8.416V33.226L24.468 22.757 10.435 32.2v17.308c0 .494-.198.968-.549 1.317-.351.35-.827.546-1.324.546h-6.69c-.496 0-.972-.197-1.324-.546A1.857 1.857 0 010 49.508V1.862A1.847 1.847 0 01.546.543 1.866 1.866 0 011.873 0z" fill="url(#logo_paint0_linear_206_185)" /><g class="logo__letters" fill="currentColor"><path d="M58.041 49.979v1.606a.45.45 0 01-.452.45H55.5a.454.454 0 01-.446-.45V29.721a.449.449 0 01.446-.45h2.192a.454.454 0 01.453.45v9.305a7.442 7.442 0 012.49-1.754 7.477 7.477 0 012.988-.613c2.092 0 4.098.826 5.577 2.297a7.822 7.822 0 012.31 5.547c0 2.08-.831 4.075-2.31 5.546a7.909 7.909 0 01-5.577 2.298 7.44 7.44 0 01-3.046-.59 7.406 7.406 0 01-2.537-1.778zm10.24-5.476a5.077 5.077 0 00-.915-2.804 5.12 5.12 0 00-2.324-1.831 5.15 5.15 0 00-5.55 1.18 5.07 5.07 0 00-1.051 5.547 5.103 5.103 0 001.897 2.265 5.144 5.144 0 002.84.842 5.162 5.162 0 003.643-1.54 5.106 5.106 0 001.46-3.66zM75.722 29.271c.41 0 .803.162 1.093.45.29.289.453.68.453 1.087a1.524 1.524 0 01-.953 1.422c-.188.077-.39.116-.593.116a1.546 1.546 0 01-1.094-.449 1.53 1.53 0 01-.451-1.088c0-.408.163-.8.453-1.087a1.55 1.55 0 011.092-.45zm-.974 7.692h1.942a.58.58 0 01.534.355.57.57 0 01.044.22v13.93a.57.57 0 01-.357.53.582.582 0 01-.221.044h-1.942a.579.579 0 01-.571-.575v-13.93a.573.573 0 01.57-.574zM81.758 29.271h1.635a.699.699 0 01.654.452.687.687 0 01.043.275v21.317a.69.69 0 01-.697.692h-1.635a.7.7 0 01-.675-.419.688.688 0 01-.056-.273V29.998a.69.69 0 01.445-.681.698.698 0 01.286-.046zM88.607 29.271h1.622a.7.7 0 01.654.452.689.689 0 01.042.276v21.316a.69.69 0 01-.696.693h-1.636a.698.698 0 01-.696-.693V30a.689.689 0 01.431-.676.7.7 0 01.28-.052zM102.759 49.979v1.385a.696.696 0 01-.696.692h-1.601a.697.697 0 01-.696-.692V29.97a.69.69 0 01.696-.693h1.684a.693.693 0 01.697.692v9.056a7.46 7.46 0 015.471-2.368c2.092 0 4.098.827 5.577 2.298a7.823 7.823 0 012.31 5.547c0 2.08-.831 4.075-2.31 5.546a7.908 7.908 0 01-5.577 2.298 7.465 7.465 0 01-3.031-.597 7.423 7.423 0 01-2.524-1.771zm10.24-5.476a5.082 5.082 0 00-.915-2.804 5.124 5.124 0 00-2.324-1.831 5.149 5.149 0 00-5.55 1.18 5.088 5.088 0 00-1.368 2.615 5.069 5.069 0 00.317 2.931 5.108 5.108 0 001.896 2.266 5.147 5.147 0 004.819.437 5.142 5.142 0 001.667-1.133 5.09 5.09 0 001.458-3.661zM131.299 39.026v-1.384a.693.693 0 01.697-.693h1.594a.693.693 0 01.696.692v13.681a.693.693 0 01-.696.692h-1.594a.693.693 0 01-.697-.692v-1.454a7.392 7.392 0 01-2.518 1.825c-.96.424-2 .64-3.05.633a7.909 7.909 0 01-5.577-2.297 7.823 7.823 0 01-2.31-5.547c0-2.08.831-4.076 2.31-5.547a7.908 7.908 0 015.577-2.297 7.48 7.48 0 015.568 2.388zm-10.239 5.477c.02 1.004.339 1.98.915 2.804a5.119 5.119 0 002.324 1.83 5.148 5.148 0 005.549-1.18 5.07 5.07 0 001.051-5.547 5.094 5.094 0 00-1.896-2.265 5.143 5.143 0 00-2.841-.842 5.154 5.154 0 00-3.662 1.529 5.096 5.096 0 00-1.468 3.67h.028zM139.917 52.042h-1.657a.693.693 0 01-.696-.692V37.662a.693.693 0 01.696-.692h1.532a.696.696 0 01.696.693v1.855c.835-1.6 2.506-2.555 4.761-2.555h.697v2.853h-.557c-2.409 0-4.762 1.045-4.762 4.645v6.868a.68.68 0 01-.201.508.697.697 0 01-.509.205zM150.387 52.042h-1.685a.696.696 0 01-.696-.692V37.662a.696.696 0 01.696-.692h1.532a.693.693 0 01.696.692v1.856c.835-1.6 2.506-2.555 4.768-2.555h.696v2.853h-.557c-2.415 0-4.768 1.045-4.768 4.645v6.868a.683.683 0 01-.192.498.691.691 0 01-.49.215zM159.178 36.963h1.685a.696.696 0 01.696.693v13.68a.696.696 0 01-.696.692h-1.685a.693.693 0 01-.696-.692V37.662a.698.698 0 01.202-.493.695.695 0 01.494-.206zm.731-7.747c.41 0 .803.162 1.093.45.29.288.453.68.453 1.087a1.543 1.543 0 01-.455 1.085c-.289.288-.681.45-1.091.452-.41 0-.804-.162-1.095-.45a1.54 1.54 0 01-.457-1.087 1.531 1.531 0 01.959-1.422c.188-.077.39-.116.593-.115zM166.028 36.963h1.532a.693.693 0 01.696.692v1.212a6.063 6.063 0 012.142-1.654 6.102 6.102 0 012.654-.561 5.91 5.91 0 014.311 1.674 5.821 5.821 0 011.759 4.258v8.745c0 .184-.073.36-.204.49a.7.7 0 01-.492.202h-1.685a.7.7 0 01-.492-.203.689.689 0 01-.204-.489v-8.052a3.574 3.574 0 00-.953-2.702 3.604 3.604 0 00-2.639-1.147 3.928 3.928 0 00-2.823 1.085 3.886 3.886 0 00-1.2 2.764v8.1a.693.693 0 01-.696.693h-1.685a.696.696 0 01-.696-.693V37.662a.691.691 0 01.675-.699zM189.647 56.314a4.656 4.656 0 003.166-1.441 4.605 4.605 0 001.268-3.225v-2.652a6.886 6.886 0 01-4.921 2.077 7.258 7.258 0 01-5.119-2.109 7.18 7.18 0 01-2.121-5.091 7.18 7.18 0 012.121-5.092 7.258 7.258 0 015.119-2.108 6.878 6.878 0 012.761.529 6.841 6.841 0 012.313 1.589v-1.115a.693.693 0 01.696-.692h1.532a.7.7 0 01.492.203c.131.13.204.306.204.49v13.908c0 4.092-2.847 7.38-7.762 7.38-3.153 0-6.195-1.578-7.267-4.5a.697.697 0 01.043-.563.695.695 0 01.451-.344l1.615-.408a.7.7 0 01.815.408 4.658 4.658 0 001.86 2.098 4.698 4.698 0 002.734.658zm-4.692-12.462a4.47 4.47 0 001.321 3.242 4.51 4.51 0 003.26 1.313 4.596 4.596 0 003.238-1.334 4.54 4.54 0 000-6.442 4.577 4.577 0 00-3.238-1.335 4.548 4.548 0 00-3.258 1.32 4.495 4.495 0 00-1.323 3.243v-.007zM214.609 47.431a.697.697 0 01.509.689.703.703 0 01-.077.294 7.877 7.877 0 01-2.994 2.948 7.937 7.937 0 01-4.092.999 7.787 7.787 0 01-5.711-2.208 7.72 7.72 0 01-2.329-5.636 7.832 7.832 0 012.356-5.589 7.891 7.891 0 012.6-1.693 7.934 7.934 0 013.056-.563 7.706 7.706 0 015.564 2.111 7.627 7.627 0 012.385 5.428v1.143h-12.961a5.162 5.162 0 001.337 2.835 5.212 5.212 0 002.735 1.55 5.235 5.235 0 003.134-.3 5.196 5.196 0 002.386-2.042.695.695 0 01.815-.34l1.287.374zm-11.506-4.541h9.641a4.96 4.96 0 00-1.778-2.667 5.003 5.003 0 00-3.046-1.03 4.953 4.953 0 00-3.046 1.017 4.907 4.907 0 00-1.771 2.666v.014zM220.972 52.042h-1.685a.7.7 0 01-.492-.203.689.689 0 01-.204-.49V37.664c0-.184.073-.36.204-.49a.7.7 0 01.492-.203h1.532a.693.693 0 01.696.692v1.856c.835-1.6 2.506-2.555 4.768-2.555h.696v2.853h-.557c-2.415 0-4.768 1.045-4.768 4.645v6.868a.683.683 0 01-.192.498.691.691 0 01-.49.215z" /></g><defs></defs></symbol><linearGradient id="logo_paint0_linear_206_185" x1=".042" y1="50.325" x2="31.083" y2="16.011" gradientUnits="userSpaceOnUse"><stop stop-color="#3020FF" /><stop offset=".16" stop-color="#3146FE" /><stop offset=".51" stop-color="#35A4FC" /><stop offset=".54" stop-color="#35ADFC" /><stop offset="1" stop-color="#B8EFF9" /></linearGradient><symbol viewBox="0 0 326.1 85.22" id="logo2"><defs></defs><path d="M2.69 0h9.11a2.69 2.69 0 012.69 2.69v27.92L34 18.29a2.68 2.68 0 013.15.21l26.79 22.18a2.68 2.68 0 011 2.07v28.7a2.7 2.7 0 01-2.69 2.69H29a2.69 2.69 0 01-2.69-2.69V53A2.69 2.69 0 0129 50.26h9.49A2.7 2.7 0 0141.2 53v9.66h12.09V48L35.15 32.87 15 46.48v25a2.69 2.69 0 01-2.69 2.69H2.69A2.69 2.69 0 010 71.45V2.69A2.68 2.68 0 012.69 0z" fill="url(#logo2_a)" /><g fill="#f0feff"><path d="M83.38 72.2v2.33a.65.65 0 01-.65.64h-3a.65.65 0 01-.65-.64v-31.6a.65.65 0 01.65-.64h3.14a.65.65 0 01.65.64v13.44A10.73 10.73 0 0191.38 53a11.34 11.34 0 010 22.67 10.67 10.67 0 01-8-3.47zm14.71-7.92a7.36 7.36 0 10-7.33 7.52 7.39 7.39 0 007.33-7.52zM108.78 42.29a2.21 2.21 0 012.22 2.22 2.22 2.22 0 01-2.22 2.23 2.22 2.22 0 01-2.22-2.23 2.21 2.21 0 012.22-2.22zm-1.4 11.11h2.79a.83.83 0 01.83.82v20.12a.83.83 0 01-.83.83h-2.79a.83.83 0 01-.82-.83V54.22a.82.82 0 01.82-.82zM117.45 42.29h2.35a1 1 0 011 1v30.8a1 1 0 01-1 1h-2.35a1 1 0 01-1-1V43.33a1 1 0 011-1.04zM127.29 42.29h2.35a1 1 0 011.05 1v30.8a1 1 0 01-1.05 1h-2.35a1 1 0 01-1-1V43.33a1 1 0 011-1.04zM147.62 72.2v2a1 1 0 01-1 1h-2.29a1 1 0 01-1-1V43.3a1 1 0 011-1h2.42a1 1 0 011 1v13.07a10.71 10.71 0 017.87-3.37 11.34 11.34 0 010 22.67 10.7 10.7 0 01-8-3.47zm14.71-7.92A7.36 7.36 0 10155 71.8a7.38 7.38 0 007.33-7.52zM188.58 56.37v-2a1 1 0 011-1h2.29a1 1 0 011 1v19.79a1 1 0 01-1 1h-2.29a1 1 0 01-1-1v-2.1a10.64 10.64 0 01-8 3.56 11.34 11.34 0 010-22.67 10.7 10.7 0 018 3.42zm-14.71 7.91a7.36 7.36 0 107.33-7.51 7.38 7.38 0 00-7.33 7.51zM201 75.17h-2.42a1 1 0 01-1-1V54.41a1 1 0 011-1h2.2a1 1 0 011 1v2.68c1.2-2.32 3.6-3.69 6.84-3.69h1v4.13h-.8c-3.46 0-6.84 1.51-6.84 6.71v9.92a1 1 0 01-.98 1.01zM216 75.17h-2.42a1 1 0 01-1-1V54.41a1 1 0 011-1h2.2a1 1 0 011 1v2.68c1.2-2.32 3.6-3.69 6.85-3.69h1v4.13h-.8c-3.47 0-6.84 1.51-6.84 6.71v9.92a1 1 0 01-.99 1.01zM228.67 53.4h2.42a1 1 0 011 1v19.76a1 1 0 01-1 1h-2.42a1 1 0 01-1-1V54.41a1 1 0 011-1.01zm1.05-11.2a2.23 2.23 0 012.22 2.23 2.22 2.22 0 01-2.22 2.22 2.21 2.21 0 01-2.22-2.22 2.22 2.22 0 012.22-2.23zM238.51 53.4h2.2a1 1 0 011 1v1.74a8.72 8.72 0 016.89-3.2 8.45 8.45 0 018.71 8.58v12.64a1 1 0 01-1 1h-2.42a1 1 0 01-1-1v-11.7a5.17 5.17 0 00-5.16-5.55 5.61 5.61 0 00-5.78 5.55v11.7a1 1 0 01-1 1h-2.42a1 1 0 01-1-1V54.41a1 1 0 01.98-1.01zM272.44 81.35a6.68 6.68 0 006.37-6.75v-3.83a9.81 9.81 0 01-7.07 3 10.4 10.4 0 110-20.8A9.84 9.84 0 01279 56v-1.59a1 1 0 011-1h2.2a1 1 0 011 1v20.14c0 5.91-4.08 10.67-11.15 10.67-4.53 0-8.9-2.29-10.44-6.51a1 1 0 01.71-1.31l2.32-.58a1 1 0 011.17.58 6.73 6.73 0 006.63 3.95zm-6.74-18a6.48 6.48 0 006.58 6.58 6.58 6.58 0 100-13.16 6.51 6.51 0 00-6.58 6.58zM308.3 68.49a1 1 0 01.62 1.42 11.36 11.36 0 01-10.18 5.71 11.18 11.18 0 01-11.55-11.34A11.34 11.34 0 01298.7 53a11.06 11.06 0 0111.42 10.89v1.65H291.5a7.49 7.49 0 0013.78 2.94 1 1 0 011.17-.48zm-16.53-6.56h13.86a7.17 7.17 0 00-6.93-5.33 7.08 7.08 0 00-6.93 5.33zM317.44 75.17H315a1 1 0 01-1-1V54.41a1 1 0 011-1h2.2a1 1 0 011 1v2.68c1.2-2.32 3.6-3.69 6.85-3.69h1v4.13h-.8c-3.47 0-6.85 1.51-6.85 6.71v9.92a1 1 0 01-.96 1.01z" /></g></symbol><linearGradient id="logo2_a" x1=".06" y1="72.69" x2="44.92" y2="23.37" gradientUnits="userSpaceOnUse"><stop offset="0" stop-color="#3020ff" /><stop offset=".16" stop-color="#3146fe" /><stop offset=".51" stop-color="#35a4fc" /><stop offset=".54" stop-color="#35adfc" /><stop offset="1" stop-color="#b8eff9" /></linearGradient></defs><use id="logo-usage" xlink:href="#logo" class="sprite-symbol-usage" /><use id="logo2-usage" xlink:href="#logo2" class="sprite-symbol-usage" /></svg>