<svg xmlns="http://www.w3.org/2000/svg" width="423.52" height="115.31" viewBox="0 0 423.52 115.31">
  <g>
    <path d="M54.92,61c-.52-1.34-1.82-1.32-3-1.68v-.83a5.3,5.3,0,0,1,4.44,2.34c.09.39-.16.61-.51.92,1,.61,1.1,1.87,2,2.5v3c.48.49,1.41-.15,1.73.77l8.71-6.54h1.09L83.76,72.05l26.57-19.74,34.42,25.62h41.06l.36,0c.56,3.07-.65,6.08-.44,9.17s.05,6.15.05,9.23v9.47c1.26-.4,1.33-1.64,2.22-2.4.59.28.94,1.33,1.89.95.44.89,1.66.08,2.08,1,.71-.64,1.39-.74,2.06,0,.3-.29.53-.69,1.12-.36.5.5-.1.77-.38,1.13-.11.72.75,1,.71,1.7.34-.17.53-.66,1.18-.41.31,1.14-.57,1.38-1.42,1.55.21.5.61.32.87.48a1.3,1.3,0,0,1-.33,1.73c0,.76,1,.81.31,1.59h3.57c.48-1.13-.44-2.17-.62-3.28a10.21,10.21,0,0,1-.26-1.61c0-2,.06-4,0-6-.07-1.24.77-2.26.56-3.54a8.5,8.5,0,0,1,0-3.48c1-3.55,1.72-7.22,3.68-10.44.72-1.17.94-2.65,2.15-3.61A5.7,5.7,0,0,1,208,84.51a7.78,7.78,0,0,0,1.37,2.4l-.54.71a.28.28,0,0,0,0,.13c1.45,2,1.39,4.58,2.65,6.92,1.07-4.86,2.34-9.36,5-13.41,2.76,1.55,3,4.65,4.88,6.95a40.11,40.11,0,0,1,3.9-8.76c2.17,1.28,2.76,3.45,3.38,5.48a47.2,47.2,0,0,1,1.71,5.8,26.85,26.85,0,0,1,.76,3.88c0,1.4.67,2.64.61,4s-.36,2.61.47,3.78c-.29,1.73.63,3.3.56,5a12,12,0,0,1-1.19,5.18,10.07,10.07,0,0,0,2.9.24,1.17,1.17,0,0,0-.2-1.71c-.32-1,.26-2.09-.5-3.14a2.6,2.6,0,0,1,0-2.38,3.64,3.64,0,0,0,.38-2.1c.06-1,0-2,0-3,0-.78.52-1.52,0-2.35-.31-.5.38-.81.48-1.27a26.29,26.29,0,0,1,2-6.17,20.19,20.19,0,0,1,2.76-4.86c.73,0,.91.45,1.19.72s-.08.64.46.74V80.58c-.42-.48-1.16.08-1.82-.28V76.84c.94-2.19,1.93-4.2,1.93-6.57,0-10.48,0-20.95,0-31.43v-1.7l-.9-.2V34.28l11.77-16.09c-.61-.38-1.47,0-2.19-.18-.33-.42-.14-.83-.16-1.08,2-2.56,4.38-4.69,6.17-7.32a1,1,0,0,1,.18-.17c2.57-2.19,4.3-5.15,6.93-7.38,2,2.37,4.19,4.52,6,7a1.93,1.93,0,0,0,.35.35c2.62,2.27,4.38,5.34,7.16,7.58H292c1.79-2.33,4.11-4.37,5.84-6.93a1.7,1.7,0,0,1,.35-.36c2.3-2,3.86-4.68,6.16-6.68,1-.88,1.37-2.39,2.92-3.07.74.94,2,1.51,2.37,2.86,0,.14.22.25.34.35,2,1.69,3.48,3.91,5.27,5.82,2.91,3.08,5.61,6.34,8.46,9.48,2.34,2.58,4.41,5.41,6.94,7.82.88.85,1.32,2,2.25,2.84a9.72,9.72,0,0,1,2.39,2.73,9.64,9.64,0,0,0,2.42,2.48c.77.66.95,1.58,1.65,2.6h-3.23V63.25c.17.31.45.18.83.23.33,1.06-.25,2.41.87,3.4-.07,0,0,0,0,0l.72-.66a3.79,3.79,0,0,1,0-3.38c.45-1.26.84-1.67,2.36-2.49.3-.34.09-.77.13-1.17a8,8,0,0,0,0-1c1.4-.48,2.1-1.79,3.2-2.66,2.57-.22,3-.18,4.32.43l3-1.52A2.34,2.34,0,0,1,353.83,56c.33.63.94.55,1.58.5l.33-.93c.76.13,1.4-.44,2.47-.66-.45,1.32-.57,2.49-2,2.71-.08.67-.15,1.29-.21,1.89h-.65c-.47-.5-.12-1.11-.25-1.77l-1.84-.86c-.19-.44-.28-1-.93-1.36a2.19,2.19,0,0,0-.58.14,9.45,9.45,0,0,0-2,1.08,1.51,1.51,0,0,1-1.61.23c-1-.63-2-.38-3.11-.46-1,.6-1.51,1.92-2.89,2.21v2.81c-1.24-.27-1.83.54-2.48,1.3v4c-1.61,1.22-3.63,2.26-2.9,4.9a11.35,11.35,0,0,0-1.95.89,12.94,12.94,0,0,0-1.54,1.5V76.8c1,.52,1.52-.41,2.37-.49V73.8c.25-.41.51-.35,1-.37.16,1.27,0,2.55.08,3.81-1.31.27-2.45,1-3.7.67-.64.63-1.57.7-2,1.49-.95-.81-2-.32-3.08-.5l-1.23,1.34a9.79,9.79,0,0,1-.46,3.2c-.47,1,.86,2.64,2.2,2.94a1.89,1.89,0,0,1,1.08.65c-.08.55-.72,1.1-.19,1.81s.66,1.66,1.79,1.69v2.54l2.07,1.79h2.76c.42.52.88,1.1,1.25,1.54h2.22l1.42,1.42a4.08,4.08,0,0,0,3.64-.92l2.6,2.74a3.47,3.47,0,0,0,2.79-1.3,2.58,2.58,0,0,1,2.45-1.45c.55-.26,0-1,.76-1,.13,0,.38,0,.41.12.82,2.06,2.44,2.56,4.43,2.33.45-.36.73-.94,1.32-1,1.1.69-.32,1.08,0,1.91l1.13.56c.61,3.32.14,6.44.29,9.53a4.65,4.65,0,0,1-1,3.31c.36.49,1-.06,1.5.51l-1.08.45c-.12.29-.41.19-.55-.13-.11,0-.19-.08-.22-.06-.2.14-.38.41-.57.41-19.8,0-39.59,0-59.26,0-.4-.26-.27-.52-.3-.93h3.43v-5.37c-.15-.15-.32-.33-.5-.5a1.52,1.52,0,0,0-.42-.18c-1.42,0-2.83,0-4.25,0-.49,0-.74-.25-1.1-.58a5.58,5.58,0,0,1-2.23.6c-2.4-.09-4.81,0-7.18,0-.3.47-.31,1.15-1.1,1.07-.48,1.25.26,2.39.11,3.93l-.86.56c.18.22.23.33.28.33h6.91a.75.75,0,0,1,.41.84c-.16.25-.41.24-.65.24-14.9,0-29.8,0-44.7,0-1.65,0-3.17.56-4.78.54a43.68,43.68,0,0,0-5,0c-1.12.11-2-.65-3.05-.57a18.22,18.22,0,0,0-3.23.07c-2.67.74-5.36.37-8,.44s-5.49,0-8.2,0c-.28-.18-.27-.42-.26-.69.1-.1.21-.29.32-.29q7.11,0,14.23,0c1.39-.6,1.53-2.13,2.43-3.35,0-.71,0-1.62,0-2.52a6.27,6.27,0,0,0-.44-3.06c-.44-.79.39-2-.52-2.78-.08-.08,0-.32,0-.48.38-2.22-.45-4.34-.57-6.52a19.84,19.84,0,0,0-1.4-5.89c-.88-2.29-1.26-4.77-2.53-6.93a10.12,10.12,0,0,0-.74-.94c-1.54,3.53-3.31,6.91-3.64,11,.26.6,1.51.4,1.81,1.35-.44.31-.95.1-1.42.16a3.41,3.41,0,0,1-1.55-3.35c-.56-2-1.75-3.16-2-4.87a2.59,2.59,0,0,0-1.79-2.13c-1.51,1.22-2,3.17-2.6,5a45,45,0,0,0-2.07,9.14c-.26,2.19-.59,4.4-1,6.56a17.9,17.9,0,0,0-.41,3.55,3.67,3.67,0,0,0,.46,2.56.74.74,0,0,1-.13.91l-.63.12a10.76,10.76,0,0,1-.31-7.17c-.37-1.93,1.41-3.8.13-5.8-.22-.35,0-1,0-1.47a13.38,13.38,0,0,0-1.56-6.59,10.33,10.33,0,0,1-.5-2.73c-.19-.33-.47-.19-.86-.26a7.15,7.15,0,0,0-1.78-4.45,4.19,4.19,0,0,0-1.4,2.13c-.28,1.21-1.3,2.24-1.8,3.48-.7,1.73-1.07,3.55-1.62,5.31a17.52,17.52,0,0,0-.47,5.29c0,2.27-.63,4.48-.56,6.78.08,2.74.27,5.39,1.77,7.9h11.41c.42.25.35.51.36.75s-.24.28-.36.28c-3.57,0-7.15,0-10.73,0-1.15,0-2.11-.76-3.29-.54s-2.38-.17-3.57.46c-.64.34-1.6.06-2.45.06l-.07-1h2.43c-.32-2-1-3.82-1-5.77-1.07-1.31-2.85-1.4-4.25-2.21-.82-.48-1.42.62-2.29.52-.42,0-.81.43-.93,1-.16.73-.75,1-1.47,1.16v2.56l-1,1c-.21.22.66.29.54.7a3.76,3.76,0,0,0,0,1h7.36c.06.55-.4.67-.6,1a43.89,43.89,0,0,1-6,0c-6.66-.91-13.35-.32-20-.43s-13.32,0-20,0H85.13l-1.38,1.45H79.11c-.56-.34-.64-.93-.93-1.43H72.66l-1,1h-5l-.32-.92H62.53l-.52.9H55.59l-.72-1H35.21l-1,1A3,3,0,0,1,33,112.31c-.19-2.17-.88-4.3-.61-6.52a31.82,31.82,0,0,0,0-3.24,13.91,13.91,0,0,1,.44-4c.4-1.28-.34-2.77.56-4-.26-1.82.49-3.4,1.2-5l.64,0c.06.2.19.39.14.48A15.58,15.58,0,0,0,34.36,94a16,16,0,0,0-.36,5c.11,1-1.13,1.73-.39,2.73s.28,1.9.31,2.85.31,1.78-.44,2.57a1.25,1.25,0,0,0,0,1.2c.84,1.19.25,2.54.53,3.77l.61.61h10.7V93c-.42-.16-.84-.28-.87.35s-.49.45-.73.55c-.93-.82.7-1.13.11-1.88-1.3.67-2.74.24-4,.37-2-1-4-1.9-4.4-4.24.27-.34.61-.33.74-.21a3.66,3.66,0,0,1,.76.92,4.36,4.36,0,0,0,4.52,2.53c.41,0,.82,0,1.22,0,.23-.71,1.2-.2,1.37-1.37l.91,1.5.72-.64c.46.56-.06,1.57,1.09,1.95h2.88A3.35,3.35,0,0,0,52,90.3a1,1,0,0,1,1.27-.85c.7.78-.72,1.23-.3,2-.77.13-.45,1.21-1.14,1.36a3.44,3.44,0,0,0-1.64,1.16H46.5v18.81h7.85c.3-2.4-.23-4.87.27-7.3,0-.12.18-.23.26-.34-.18-.43-.89.05-.94-.83A8.22,8.22,0,0,0,55.65,101a6.59,6.59,0,0,0,.26-1.62c0-2.41,0-4.81,0-7.09-.46-1-1.64-1.19-2.06-2.12.58-.42,1.09-.2,1.56-.27a6.23,6.23,0,0,0,.76.69,3.21,3.21,0,0,1,1.49,1.49c.18.82-.72,1.35-.43,2.14-.27-.76.52-1.24.53-2a3,3,0,0,0-1.63-1.66,9.07,9.07,0,0,1-.72-.67l2.89-2.56a8.07,8.07,0,0,0-1.56-6.56l1.65-1.15V77.7a4.07,4.07,0,0,0-2-1.54c.25-1.11.9-.54,1.32-.73l1.75,1.83v2.58l-1.09.86c.39,1.66,1.29,3.07,1.45,4.85-.49.66-.25,1.79-1.23,2.81H81.84v8.07c1.14,3.33,2.64,5.79,2.53,8.71,0,1,.65,1.77.56,2.78a3.88,3.88,0,0,0,.41,2.82c.31.44,0,1.28,0,2h5.74c.39-2,.52-21.27.19-31.15L68.94,64.87c-2.52,1.9-5.2,3.61-7.52,5.75v2.06c-.55.45-.89,1.19-1.65,1.34l-.36-.44c0-.7.67-.88,1-1.39V70.75c-1.07-.35-1.24-1.39-1.72-2.33h-2.6c-.48-1,.48-1.13.77-1.66a4.35,4.35,0,0,0-.55-3.18c-.57-1-2.07-1-2.41-2.08C54.06,60.73,54.57,61,54.92,61Z" style="fill: #a6cbff"/>
    <path d="M364.58,101.39h-1.37V98.9c-.47-.59-.7-1.19-1.42-1-.24-.86-1.14-1.5-.51-2.46.86.29.71,1.37,1.53,1.86h2.09l.85-.84,1.82.93c2.47-.13,2.87-2.37,4.24-3.5l.95.9c1.44.44,2.34-.58,3.48-.93,1,.62,1,2,2.15,2.5.8.33,1.29-.51,2-.56a8.51,8.51,0,0,1,1.37-2.43c1.85,0,4,.3,5.34-1.91l-1-2a8.45,8.45,0,0,0,5-1.77c-.18-.81.36-1.78-.48-2.6A1,1,0,0,0,391,84h2.21c.55-.63.07-1.56.81-2,0-.71-1-1.42-2.35-1.71-.78-.63-.9-1.64-1.35-2.43a11.4,11.4,0,0,0-5.05-1.61l2.21-2.55c-.74-.73-.36-1.66-.46-2.52-.42-.33-.6-1-1.43-.69v-2.1a3.56,3.56,0,0,0-2-1.67c1.44-3.11,1.44-3.11,2.85-3.85.27,1.42-.88,2.12-1.57,3.12a4.61,4.61,0,0,1,1.79,3.37c1.1.36,1.27-1.59,2.44-.66-.13,1-1,1.26-1.49,1.94.85.73.16,1.82.53,2.63.71.64,1.23-1,1.9-.09.15,1.1-1.5.54-1.39,1.75H391c-.29,1.24-1.39.76-2,1.22l2.05,1c.68.61.75,1.44,1.16,2.17l1.14.12c2.77,2.76,2.86,2.8,5.53,2,.31.67,0,1.71,1.09,2,.76,0,.84-1,1.65-1,.52,0,.57.72,1.05,1h3.07l.8-.73c0-.51.09-1-.35-1.4a4.17,4.17,0,0,1-.57-1.2c.43-.32.94-.09,1.42-.16l.26.15a1.23,1.23,0,0,1,.26.54l0,.31a3.94,3.94,0,0,1-1.27,3.49h-4.53c-1.08,2.26-2.18,4.55-3.29,6.83-.44.9-1.25,1.75-1.34,2.67-.17,1.84-1.05,3.67-.53,5.51.85,3.08.35,6.19.43,9.29,0,1.38,1,2.58.45,4.08h25.69a.69.69,0,0,1,.37.73c-1.62.43-14.27.57-26.78.29-.5-.9.21-2-.37-2.83s-.22-1.75-.3-2.62a29.8,29.8,0,0,1,0-3c0-2.35-.8-4.64-.52-7,.14-1.18-.16-2.4.48-3.55a1.21,1.21,0,0,0-.19-1.39l-.56.5c-.49-.74,0-1.62-.36-2.43l-1.35.66c-.1.73.58,1.09.73,1.71a11.07,11.07,0,0,1,.79,3.42,38.17,38.17,0,0,0,0,5.24c.24,2.88-.56,5.67-.54,8.53,0,1.06-1,1.75-1.12,2.79h-28c-1.35-.78-1.57-2.23-1.78-3.63-.41-2.7.6-5.33.5-8,0-.29.55-.38.48-.79a6.65,6.65,0,0,1,.61-.58,2.72,2.72,0,0,1,.57-.23s.13,0,.13,0a.66.66,0,0,0-.15,0,1.63,1.63,0,0,1-.17.11.61.61,0,0,0-.43.19C364.94,101,364.76,101.21,364.58,101.39Z" style="fill: #a6cbff"/>
    <path d="M374.07,45v-.75c1-.78,1.92.1,2.91.39l-1.54-1.54c.41-.81.87-.51,1.3-.62l1.58,1.84c.44.24,0,.85.61,1.24,1.21-1,2.4-.55,3.64.16a25,25,0,0,0,2.7,1.32c1.13.47,2.08,1.58,3.43.56a2.38,2.38,0,0,0,2,.36l-1.39-1.38,1.09-1.17.61,1.13c.64-.2.77-.8,1.32-.5s.06.89.34,1.29c.11.21.19.16.36,0a4.73,4.73,0,0,1,2.3-1.7,3.33,3.33,0,0,1,2.87.51c.95-1.26,2.42-1.53,3.84-1.71.07-.38-.08-.66.37-.93l.58,1.28.66-.59c.65.15,1.13.46.89,1.25l2.17.2-.62.58c1.08.41,1.65,1.32,2.45,2a2.51,2.51,0,0,0,.65,1.76c.68.9,1.49,2,.43,3.29A5.77,5.77,0,0,1,411,55.46c.07.43-.37.52-.55.95.75,1.42,1.81,3,.48,4.67.54.38,1.18.54,1.21,1.32,1.06.25,2.31-.37,3.14.69.55,1,1.09,2,1.65,3,.08.14.28.22.34.36A8.11,8.11,0,0,0,418.42,69a9.18,9.18,0,0,0,2.49,1.14c.14.06.13.42.19.65a1.3,1.3,0,0,0,1.7-.3l.71.71c-.32.51-1.29,0-1.3,1-.24,1,1.45.39,1.31,1.48-.65.72-1.23.23-1.91-.19v2c-1,1.49-2.59,1.37-4,1.7-.37-.55-1.16-.18-1.86-.23l-1,1c-1.32-.22-2.81.44-4.15-.51-1,.33-1.82,1.24-3.11,1,.35,1,1.18.18,1.47.71s-.13.78-.42,1.06l1,1c-.78.64-1.34,0-2-.27-.31-.27-.19-.74-.5-1,0-.08,0-.23,0-.24-1.78-.7-1.78-.7-2.46-3.3a3.94,3.94,0,0,0,5,.34c0-.33,0-.59.36-.84a6.07,6.07,0,0,0,4.47,1l.91-.91h4.52c1.11-1.6,1-2.22-.72-4.2.1-.56.77-.09.93-.53-.68-1-2-.73-2.87-1.41-.23-1.47-.24-3.06-2.09-3.59l.49-.53c.24-.66-.79-.86-.55-1.52a2.5,2.5,0,0,0-2.73-.24,5.79,5.79,0,0,1-.69-.71c-.13-.18.1-.5-.3-.7L409,62.36c.06-1.15,1.09-1.36,1.49-2.31V58.17a1.54,1.54,0,0,0-2.07-.49,3.28,3.28,0,0,0,1.1-3,1.93,1.93,0,0,0-1.47-.84c-.08-1.13,1.35-1.29,1-2.33-.24-.83-1.09-1.17-1.53-1.91v-.9l-1.17-1.18h-2c-.33-.32-.45,0-.27-.26s.64-.54.42-1.1c-.77-.24-.86,1.12-1.71.8-.56-.5,0-1.24-.4-1.95-1,1-2.67.66-3.57,2-.46,0-1.13.2-1.42,0-1.34-1.09-2.2-.06-3.13.59-.71.51-1.13,1.4-2.12,1.58a4.3,4.3,0,0,0,.9,1.59l-.67.72c-1.07-.5-.88-2.1-2.2-2.38-.95.1-2-.35-3.06.13a3,3,0,0,0-.29.28c-1.59-1.76-4-2.09-5.92-3.37-.65-.43-1.2.1-1.77.41-1-.37-1.85-1.25-3.06-1l-.32.08a1.42,1.42,0,0,1-1.54-.28C374.17,45.2,374.12,45.1,374.07,45Z" style="fill: #a6cbff"/>
    <path d="M124.4,18.47v-.94h5.31c.37-.82-.28-1-.52-1.46-1.41,0-2.84-.25-4.28.66,0-.67-.07-1.06-.1-1.45-.13-.08-.27-.22-.4-.21a5.83,5.83,0,0,1-3.86-1c-1.32-.92-3-.47-4.31-.54-.94.58-1.66,1.27-2.74.9-.33-.35,0-.79-.19-1.22-4.78-2.45-9.45-2.42-13.94.83-.48,0-.41-.33-.52-.64s-.38-.51-.68-.88c-1.17.23-2.4-.3-3.7.44-.69.4-1.79.13-2.7.06a4.61,4.61,0,0,0-3.22,1c-1,0-2,0-3.1,0a5.12,5.12,0,0,0-4.92,2.49s-.15,0-.42,0A1.21,1.21,0,0,1,80.24,15a7.33,7.33,0,0,1,4.21-1.87,10.09,10.09,0,0,1,1.74,0A6.25,6.25,0,0,0,89,12.61a5.83,5.83,0,0,1,3.26-.55c2.12.27,4.13-1,6.56-.31l.6.77a17.55,17.55,0,0,1,7.85-2,13.15,13.15,0,0,1,7.6,2.54c2.46-.81,5-1,7.34,1h2.39c1.64,1,1.64,1,5.07,1l.8,1.36c.31,1.09.31,1.09-.26,2Z" style="fill: #a6cbff"/>
    <path d="M25.46,91.12l2.2.28c.39.18.17.64.39.83,1.54,1.41,1.63,3.34,1.88,5.2.19,1.33-.07,2.67.43,4a3.16,3.16,0,0,1-.29,3,1,1,0,0,0-.11.7c.26,2.12-.29,4.18-.55,6.26-.16,1.24-.4,2.63-1.85,3.34l-.19-.9H.88c-.5-.33-.37-.6-.39-1H27.66c.8-1,.61-2.12.84-3.11.92-4,.3-8,.42-12a6.23,6.23,0,0,0-3.46-6.23S25.46,91.45,25.46,91.12Z" style="fill: #a6cbff"/>
    <path d="M368.08,55c1-.24,1-1.32,1.47-1.87.19-.58-.59-.63-.47-1.11-.07-.4.34-.5.48-.78-.26-.29-.69-.5-.36-1.1.45-.45.77,0,1.09.36.95-.46.73-1.84,1.85-2.13l-.59-.64c.08-1.2,1.05-1.18,2.16-1.37-.61-.46-1.41-.47-1.58-1.34h1.94c.57.55,1.43,0,2,.5v.75c-.74.58-1.82.57-2.43,1.49l.37.47c-.29.87-1.07.76-1.81.86-.05.7-.55,1.11-1.05,1.59.32.5.8,1-.06,1.53l.48.56-1,.46c-.12.75.74,1.06.71,1.74,3.73-.19,5.29.58,5.28,3.79-.79.63-1.3,1.65-2.46,1.9.51.59.52,1.49,1.38,1.87l2-1c1.52,0,3.27-.33,4.68,1.33-1.5.23-2.82-.77-4.34-.23l-3.72,1.89c.34-1.88-1-3.18-1.56-4.73.62-.51,1.23-.1,1.61-.44l1.38-1c.19-.81-.76-.94-.44-1.56-2.06-1.42-4-.64-5.94.25-.67,0-.77-1-1.63-.51A1.73,1.73,0,0,0,368.08,55Z" style="fill: #a6cbff"/>
    <path d="M223.91,39c1.06,0,1.89,0,2.72,0s2,.21,2.28,1c.44,1.21,1.67,1.38,2.4,2.36h-9.49l-1-.86h7.2c.42-.81-.17-1-.5-1.45h-2.51l-1.56.84c-.05,0-.25-.15-.24-.2.35-1.52-1.12-1.54-1.81-2.21a10.35,10.35,0,0,1-5.38-.85,7.22,7.22,0,0,0-2.59-.18l-.49,1,.71.7c-.08.1-.14.29-.24.3-.95.14-1.61-.49-2.6-.91-2.91-.63-5.69.39-8.18,2a.71.71,0,0,1-.41-.77c1.29-.68,2.32-1.8,3.9-2a19.92,19.92,0,0,1,3.44-.32,3.89,3.89,0,0,0,3.4-1h2.43c.33,0,.79-.15,1,0,1.68,1.47,3.7.84,5.58,1C222.55,38.12,223.5,38.17,223.91,39Z" style="fill: #a6cbff"/>
    <path d="M38.54,45c1.08.79,2.37,1,2.44,2.56,2.17-.3,4.08.55,6.25,1.06l1.65,1.87v1.82c-.26.29-.5.2-.75.17-.42-.51-.1-1.11-.21-1.67A4.06,4.06,0,0,0,44.21,49c-1.23-1.05-2.7-.2-4.12-.57-.33-.25-.06-.7-.26-1.3L38.49,46a5.35,5.35,0,0,0-4.43,1c-.72-.1-.92-.76-1.42-1H29.32c-.84.68-1.65,1.46-2.48,2.24s-.73,2.25-2.37,2.26c1-2.09,1.94-4,4-5a5.45,5.45,0,0,1,4.43-.23c.58.2,1.27.39,1.61.18C35.83,44.63,37.23,45.21,38.54,45Z" style="fill: #a6cbff"/>
    <path d="M23.46,50c.08.63.77.81,1,1.37,0,.29,0,.61-.08.93,0,.07-.11.12-.18.2s-.44,0-.46,0c-.58-1.61-1.83-2-3.39-2H18.85a4.94,4.94,0,0,0-3,3c-.77-.51-1.71-.56-2-1.37-2.51-.57-4.78.55-7.15.38a10.22,10.22,0,0,0-1.34,1.66c-.42.89-.76,1.6-.08,2.42.25.31.11.63.14.94,0,.13-.12.28-.18.41-.81-.13-.52-1.27-1.31-1.43-.4-1.17.65-2.12.51-3.23l1.73-1.76c1,0,2.28.38,2.92-.1.86-.64,2,.12,2.64-.94a18.91,18.91,0,0,1,2,.67,7.91,7.91,0,0,1,2,1c.33-1.39,1.44-2,2.66-2.6.76,0,1.67,0,2.57,0S22.54,50.25,23.46,50Z" style="fill: #a6cbff"/>
    <path d="M39.62,30,39,29.3c1.13-1,1.35-2.8,3.15-3.22h3.1L46,25c1.11,0,2,0,2.93,0a2.9,2.9,0,0,1,2,.51,2.81,2.81,0,0,0,2,.5c.91,0,1.82,0,2.69,0,.77.77,2,.74,2.63,1.6a1.27,1.27,0,0,1-.12,1.42c-1.85-2.5-4.28-2.41-6.84-1.45-.48-.51-.49-1.26-1.16-1.56H46.71c-.64.57-1.64.66-2,1.52-.91-.18-1.54-.95-2.49-.6l-1.41,1.47h3.77l.77.81c-.08.09-.17.27-.27.27-1,0-2,0-3,0S40.29,29.22,39.62,30Z" style="fill: #a6cbff"/>
    <path d="M370.53,19.37c-.49.22-.4.7-.59,1.09a2.85,2.85,0,0,1-1.88-.11l1-1.07c-.93-.58-2.13-.72-2.66-1.68-1-.38-1.69.85-2.69.35-.23-.59,0-1.46-.88-1.84-3.07-.08-3.07-.08-4.79,1.95-.81-.15-.29-.8-.46-1.21l1-1.05a.51.51,0,0,0-.64-.23,6.2,6.2,0,0,0-2.45,1.92c-1.07.25-2.27-.37-3,.78-.74-1.05.07-1.26.35-1.7H355L356.25,15a2,2,0,0,0,1.8-.55c.82.82,1.91.57,2.94.57a5.48,5.48,0,0,1,3.19.77,35.67,35.67,0,0,0,4,1.75A4.78,4.78,0,0,1,370.53,19.37Z" style="fill: #a6cbff"/>
    <path d="M3.9,56.66c.22.81-.59.85-.35,1.57a2.86,2.86,0,0,1,1.27,1.36c-.8,2.56,0,5.19-.45,7.72l-.55.56c-.11-.06-.32-.1-.33-.17-.12-.86-1.1-1.72,0-2.58V60.71c-1.06-1-1.94.94-3,.1a2.37,2.37,0,0,1,2.56-1.33C2.27,58.16.71,58.28,0,57.17l.73-.57,2.16,1.09a4,4,0,0,0-.9-2c-.05-.7.48-.81.68-1.15C3.27,55.18,3.28,56.15,3.9,56.66Z" style="fill: #a6cbff"/>
    <path d="M22.72,91.41c.17-.34.33-.69.52-1a2.48,2.48,0,0,1,.94-1C24.59,91,23.67,92,22.7,92.9c-.52.19-.71-.31-1.06-.5-.78-.05-1,1-1.84,1h-5a5.22,5.22,0,0,0-1.52-.87,1.91,1.91,0,0,1-1.5-1.11c-.42-1.23-1.4-1.55-2.41-2a1.11,1.11,0,0,1-.78-1.48c1.53.52,3.1.88,3.89,2.51s2.09,1.83,3.52,2c1.23.11,2.48,0,3.48,0a8.64,8.64,0,0,0,2.42-1.55A1.18,1.18,0,0,1,22.72,91.41Z" style="fill: #a6cbff"/>
    <path d="M3.3,70H.83c-.4-.24-.34-.5-.35-.89,1.22-.41,2.67.28,4-.51a54.51,54.51,0,0,0-1.95,6.26,14.38,14.38,0,0,0,.8,6.91l2.12,1.77c0,.49,0,.73-.37,1-2.57-1.45-3.21-4.06-3.56-6.68A11.46,11.46,0,0,1,3.3,70Z" style="fill: #a6cbff"/>
    <path d="M32.5,92.6l-.75.76c-.67.4-.88-.74-1.63-.4a5.3,5.3,0,0,0-2.19-3.78l.79-.78c.62.82,1.66,1.28,2,3L31,90c.31-2.9,2.27-5.34,3.61-8.26a1.49,1.49,0,0,1,.16,1.7,28.89,28.89,0,0,0-1.29,2.69A12,12,0,0,0,32.5,92.6Z" style="fill: #a6cbff"/>
    <path d="M11,80.18v1L13.1,83.3c1.3.81,2.54-.84,3.89-.23-.37.83-1.29.75-1.7,1.27-1.6.53-2.78-.5-4.17-1l-.81-1.79c-.6-.15-1.35.08-1.77-.87V78.12c.34-.27.56-.8,1.16-.69.24.16.39.45.26.62a2.33,2.33,0,0,0-.37,2.27C10.06,80.36,10.45,79.49,11,80.18Z" style="fill: #a6cbff"/>
    <path d="M223.32,94.24c-1.39,1.39.42,2.83-.08,4.27.86.9.43,2,.48,3,.06,1.32,0,2.66,0,4,0,.06-.07.13-.1.19-.2.23-.44.14-.9.09.13-4,.05-7.93-1.43-11.72l.69-.7Z" style="fill: #a6cbff"/>
    <path d="M84.06,17.56c-.2-.39-.22-.62,0-.88,3,0,6.14,0,9.23,0,.18,0,.35.33.7.68l-.89.3c-1.4,1-2.87-.25-4.45-.15S85.52,17.56,84.06,17.56Z" style="fill: #a6cbff"/>
    <path d="M33.9,56.79c-1.65-.32-1.57-2.47-2.64-2.6-2.65-.7-4.29.63-6,1.33-.4-.25-.43-.57-.33-.74.8-1.24,2.26-1.38,3.46-1.71a4.81,4.81,0,0,1,3.51.37C33.34,54.17,33.11,55.72,33.9,56.79Z" style="fill: #a6cbff"/>
    <path d="M332.09,87.67c1.28-.82,2.35.21,3.5.24a22.41,22.41,0,0,1,3.48,0c1.23.23,2.26-.79,3.44-.52.39,1.34-1,.85-1.23,1.47-2.76-.12-5.56.37-8.26-.51A3.64,3.64,0,0,1,332.09,87.67Z" style="fill: #a6cbff"/>
    <path d="M364.8,54.45c-.44,1.17-1.64,1.46-1.68,2.35-.06,1.28-1.37,1-1.86,1.72-.75-.13-1.35-1-2.41-.71-.26.43-.52.85-.67,1.11H357c.44-.45,1-1,1.53-1.53a2.79,2.79,0,0,1,2.91,0c.92-.71.89-2,1.76-2.76C363.6,54.32,364.11,54.55,364.8,54.45Z" style="fill: #a6cbff"/>
    <path d="M211.36,42.51l-.92-.92h10.19c.05.22.08.37.11.52s-.16.38-.25.38C217.35,42.51,214.2,42.51,211.36,42.51Z" style="fill: #a6cbff"/>
    <path d="M350.6,68.45c-2.29,0-2.29,0-4.5-2.25,0-.33,0-.66,0-1,0-.06.11-.11.22-.22,1.12.89,1.91,2.31,3.88,2.51-.9-1-.55-2-.61-3h.82c.36.54,0,1.21.22,1.65a1.9,1.9,0,0,1,.46,1.3c0,.1,0,.2,0,.3a1.23,1.23,0,0,1-.26.54Z" style="fill: #a6cbff"/>
    <path d="M5,86.14c-.35-.5-1,0-1.4-.39L3.48,85H6.43c.13,0,0,.44.11.71a9.17,9.17,0,0,1,3.05,1.18A1.17,1.17,0,0,1,8,87.37c-1.11-.77-2.07-.41-3.11,0a1.57,1.57,0,0,1-.68,0C3.38,86.25,4.83,86.64,5,86.14Z" style="fill: #a6cbff"/>
    <path d="M368.08,55c-.61.1-.82.71-1.28,1-1.08,0-1.54-.91-2.22-1.5a9.88,9.88,0,0,0-.93-2.81l.72-.72c1,1.13,1,2.72,1.89,4a1.26,1.26,0,0,0,.82-1.44c.52.1.73-1,1.41-.33C369,53.87,367.6,54.23,368.08,55Z" style="fill: #a6cbff"/>
    <path d="M111.68,18.19l-.89-.32.17-.24h8.35v.84h-7.66Z" style="fill: #a6cbff"/>
    <path d="M371.26,21.41l.89.32L372,22h-8.3c-.05-.46.37-.51.52-.84h7.09Z" style="fill: #a6cbff"/>
    <path d="M352.2,23.46a.71.71,0,0,1,.07-.83H360c.12.32.18.55-.07.83Z" style="fill: #a6cbff"/>
    <path d="M49.56,52.53c1.16-.14.62.81,1.14.93.27-.29.52-.64,1.16-.37.29.81-.62,1.23-.61,1.85-1,.18-.68-.63-1.07-.95-1,.81-1.34,2-2,3h-1c-.22-.13-.19-.22-.13-.36C47.7,55.08,49.38,54.22,49.56,52.53Z" style="fill: #a6cbff"/>
    <path d="M351.1,67.46,353,65a.68.68,0,0,1,.67.36,47.22,47.22,0,0,1-3.19,6c-.11.14-.43.11-.73.19l.86-3C350.91,68.19,350.8,67.72,351.1,67.46Z" style="fill: #a6cbff"/>
    <path d="M76,19v-.83h7.4V19Z" style="fill: #a6cbff"/>
    <path d="M339.36,82.9l.82.89c-2.72.52-5.1-.36-7.52-1.06a1.78,1.78,0,0,1,.09-1.2A12.44,12.44,0,0,0,339.36,82.9Z" style="fill: #a6cbff"/>
    <path d="M384,62c.83,0,.92-1.28,1.88-.94a.54.54,0,0,1,0,.84c-.51.53-1,1.05-1.57,1.58a3.46,3.46,0,0,1-1.83-.22c.58-1.09-.06-2.81,1.79-3.3.45.48.31.83-.06,1.11S384.19,61.67,384,62Z" style="fill: #a6cbff"/>
    <path d="M341.13,86.5c-.65-.78-1.89-.29-2.52-1.39a2.09,2.09,0,0,1,2.4.35c.44-1.39-1-2.62-.22-4h.72C341.41,83.13,343.06,84.77,341.13,86.5Z" style="fill: #a6cbff"/>
    <path d="M23,72.73c0-.16-.1-.39,0-.47,1.25-1.45,2.8-2.64,3.82-4.3,0-.06.3,0,.46,0C27.19,69.86,25.47,71.77,23,72.73Z" style="fill: #a6cbff"/>
    <path d="M300.57,108.54a.61.61,0,0,1-.07.72c-.5.38-1.24-.17-1.79.31.08.36.7.49.26,1.2-.37.31-1,0-1.63,0-.24-.34-.68-.5-.7-1,0-.8.79-.32,1.11-.75a2.4,2.4,0,0,1,1.41-.7A1.75,1.75,0,0,1,300.57,108.54Z" style="fill: #a6cbff"/>
    <path d="M328.4,83.81l1-.81c1.41,1.29,3.64.9,5.5,2.31C332.31,85.68,330.5,84.6,328.4,83.81Z" style="fill: #a6cbff"/>
    <path d="M51.3,56.55a.67.67,0,0,1-.37-.7,16.92,16.92,0,0,1,4.22-2.41c.6.7.12,1.08-.26,1.29C53.7,55.4,52.46,56,51.3,56.55Z" style="fill: #a6cbff"/>
    <path d="M23.46,50l-1.54-3.6c.28-.51.56-.34.86-.43.35,1.44,1.54,2.5,1.68,4Z" style="fill: #a6cbff"/>
    <path d="M38.46,72.17c2.25-.27,3.23.62,3.4,3.1a1.12,1.12,0,0,1-1-1,2.16,2.16,0,0,0-1.13-1.21A2.93,2.93,0,0,1,38.46,72.17Z" style="fill: #a6cbff"/>
    <path d="M57.19,55.48c-.78.68-1.11,1.26-1.83,1.52a11.61,11.61,0,0,0-1.69.86l-.83-.67C54.15,56.46,55.24,55.41,57.19,55.48Z" style="fill: #a6cbff"/>
    <path d="M21,70.4c.62.13,1-.1,1.51.3-1,.9-1.76,2.11-3.25,2.26-.62-.61-.14-.95.22-1.23C20,71.32,20.81,71.3,21,70.4Z" style="fill: #a6cbff"/>
    <path d="M206.76,43.88c.86-.89.86-.89,3.25-.81l.9.81Z" style="fill: #a6cbff"/>
    <path d="M24.54,44.61a.72.72,0,0,1,.83.06v2.72a.72.72,0,0,1-.83-.06Z" style="fill: #a6cbff"/>
    <path d="M44,44.65c-.19,1.92-1.43,1.88-2.16,2.41-.55-.34-.59-.73-.19-1C42.29,45.6,43,45.26,44,44.65Z" style="fill: #a6cbff"/>
    <path d="M296,113a.71.71,0,0,1,0,.83h-2.72a.72.72,0,0,1,0-.83Z" style="fill: #a6cbff"/>
    <path d="M15.79,51.21c-1.83-.51-2.28-1.53-2.86-2.83C14.37,48.81,15,49.66,15.79,51.21Z" style="fill: #a6cbff"/>
    <path d="M361.77,111.57c1,.67,1.64,1.12,1.88,2C361.85,113.87,361.66,113.7,361.77,111.57Z" style="fill: #a6cbff"/>
    <path d="M46.25,30.29c-.56-1,0-1.26.31-1.64s.58-.11.88-.1.65-.16.9.14l.12.61C47.79,29.71,46.81,29.41,46.25,30.29Z" style="fill: #a6cbff"/>
    <path d="M.4,66.78c1.25-.36,1.54.53,2.07,1a.68.68,0,0,1-.32.76C1.14,68.36,1,67.38.4,66.78Z" style="fill: #a6cbff"/>
    <path d="M56.25,74.6c.43-.9,1.27-.76,1.89-1.33l.48,1C58.08,74.32,57.45,75.47,56.25,74.6Z" style="fill: #a6cbff"/>
    <path d="M39.44,73.69c.09.68-.64,1-.64,1.71h-.68C38,73.68,38.12,73.54,39.44,73.69Z" style="fill: #a6cbff"/>
    <path d="M21,70.45h-1.7l-1.09-.9h2.72Z" style="fill: #a6cbff"/>
    <path d="M82.32,85.46h1.83c.35.21.19.48.26.72a2.58,2.58,0,0,1-1.8.18C82.28,86.17,82.44,85.89,82.32,85.46Z" style="fill: #a6cbff"/>
    <path d="M88.38,103.86a1.35,1.35,0,0,1-1.8,1l-.75-.74A8.84,8.84,0,0,1,88.38,103.86Z" style="fill: #a6cbff"/>
    <path d="M69.59,81.6c.76-1,1.51-.55,2.11-.61.31.18.17.45.22.74A2.66,2.66,0,0,1,69.59,81.6Z" style="fill: #a6cbff"/>
    <path d="M66.07,73.57c-1.42,1.1-1.42,1.1-2.75,0Z" style="fill: #a6cbff"/>
    <path d="M52.87,91.42c1.09-.25,1.37.74,2,1.21l-.63.68C53.28,93.06,53.51,91.94,52.87,91.42Z" style="fill: #a6cbff"/>
    <path d="M62,85.79v-.7c.65-.36,1.25-.06,2-.23C63.45,86,62.81,86.09,62,85.79Z" style="fill: #a6cbff"/>
    <path d="M51.88,94.49v.82H50.47v-.82Z" style="fill: #a6cbff"/>
    <path d="M47.48,108.71v-.64c.47-.42.92,0,1.4-.29C48.7,108.82,48.7,108.82,47.48,108.71Z" style="fill: #a6cbff"/>
    <path d="M367.11,53.71c-.87-.72-1.35-1.26-.89-2.12.4-.1.43.37.68.46C367.24,52.51,367,53,367.11,53.71Z" style="fill: #a6cbff"/>
    <path d="M83,76.79c.38-.26.67,0,.84.52a3.53,3.53,0,0,1-2.25-.1Z" style="fill: #a6cbff"/>
    <path d="M73.66,70.43l.69.75-.69.78-.75-.75Z" style="fill: #a6cbff"/>
    <path d="M422.25,68.29c.33.72.38,1.16.07,1.62h-.61C421.16,69.14,422,68.94,422.25,68.29Z" style="fill: #a6cbff"/>
    <path d="M302.65,105.88c-.66,0-1.32,0-2,0-1.83,0-3.69.23-5.44-.73l-.27-.8a2,2,0,0,0-.91,1.46h-7.19l-1-.92-.71.71c.1.29.55.37.47.78H284a5.74,5.74,0,0,1,.59,3.83l-.88.34v.61c.3.36.66.15,1,.21,0,.51-.78.67-.48,1.38h-4.46V80.61c.52-.38,1.12-.1,1.83-.21a7.58,7.58,0,0,0-.68-5,11.4,11.4,0,0,1-1.23-5.49c.06-11.39,0-22.78,0-34.14,2.61-3.05,5.26-6,7.93-9,2.49-2.78,4.91-5.62,7.41-8.4s4.69-5.39,7-8.07c1.29-1.47,2.6-2.92,3.95-4.33.38-.4.89-.72.7-1.32.54-.15.87,0,1,.28.62,1.28,1.77,2.1,2.64,3.15,1.81,2.17,3.93,4.08,5.5,6.45a1.7,1.7,0,0,0,.35.36c2.3,2,4,4.52,6.12,6.72,2.52,2.64,4.83,5.49,7.23,8.23,1.24,1.41,2.45,2.84,3.79,4.14.71.68.84,1.77,1.75,2.24V65.68c.34.55.94.09,1.36.38.27.28.16.56-.07,1l-3.28-1.54c.05,2.13,2.39,1.5,3,2.81a4.25,4.25,0,0,0-.61,2.13c-.55,0-.93,0-.91-.45.05-1.06-.7-1.72-1-2.49a2.11,2.11,0,0,0-1.51.18,5.08,5.08,0,0,1,1.48,2.07c-.66.46-1.51,0-2.24.26-.3.17-.16.45-.22.83a6.09,6.09,0,0,1,2.78.63l-1.75,1.76v4l-.73.72h-3.93c-2.06,1.35-1.82,3.75-2.67,5.83.66,1.33,1.15,3,3.18,3.55a8.87,8.87,0,0,0,1.44,3.62c.24,0,.5-.06.69.25v2.48l2.34,2.17h1.84l.77.77v16.17H327.1c.21-.58.86-.17,1.06-.9.07-.48-.66-.66-1-1.44v-3.77L326,105.48c-1.44-.48-3.11.57-4.39-.75l-.84.77c-.11.42.36.45.49.8h4.06l.85.84c-.12,1.46.3,3-.52,4.46l.49.53-.72.72H309.91c-.65-1.09-1.14-2.11-.33-3.47.36-.6.06-1.59.06-2.37,2.2-.46,4.38.36,6.5-.58,1.27.53,1.27.53,4.4.32a.94.94,0,0,0-.67-.83,2.9,2.9,0,0,1-2.64-1.09c-.46.11-.65.23-.59.55-2.29.83-4.66.37-7,.52-.55,0-.6-1-1.31-.41-.51.42.25,1.35-.92,1.68l1.05.27c.8,1.46-.64,2.75-.31,4.17a1.4,1.4,0,0,0-1.21,1.2h-3.23v-4.28l.79-.26c.39-.46.05-.74-.25-1-.12-.45.89-.62.23-1.21-.36-.3-.87-.09-1.34-.15l-.16-.08-.16.08Z" style="fill: #ccdcee"/>
    <path d="M113.35,112.78V92H102.93V112.8H92.49v-30a4.84,4.84,0,0,1,2.32,1.31V80.61c-2.29-2.46-5.48-3.87-8-6.49,5.64-4.5,11.51-8.66,17.4-13.16l.33,1c.92,0,1.33.16,1.76-.12l0-.6c-.39-.53-1,.06-1.44-.45,1.42-1.75,3.47-2.73,5.3-4.31l33.63,25v31.33Z" style="fill: #ccdcee"/>
    <path d="M242.3,37.06h36.3V70.71c-2,.35-29.13.47-36.3.15Z" style="fill: #ccdcee"/>
    <path d="M184.69,105.31l-1.28.14c0,.93,1,.74,1.39,1.31l-.64,1.48c-.54.4-1.28-.15-1.83.33.3.62,1.24.89.95,1.8-.06.71-1,.85-1,1.58s.77.18.94.59c0,.33.27.1,0,.15-2.21.41-4.44,0-6.83.24v-22a1.68,1.68,0,0,0-1.89-1c-3.16,0-6.32,0-9.48,0H147.87V112.8h-2.94V82.56c1.79.55,3.5-.37,5.29-.18a54.72,54.72,0,0,0,5.73.05h28.74Z" style="fill: #ccdcee"/>
    <path d="M245.21,107.29c0-1.08-.05-2.07,0-3.05.14-2.29-.88-4.48-.51-6.78-.67-1.48-.67-3.18-1.49-4.62a8,8,0,0,1-1-4.32c.06-2.65,0-5.3,0-8H278l.6.6v26.22h-7.83V87.24l-.8-.76H250.9l-.68.67v20.14Z" style="fill: #ccdcee"/>
    <path d="M351.35,98.37c.58.7-.22,1.64.84,2.15.69-.56.17-1.87,1.38-2.1a4.76,4.76,0,0,1,1.74.94h2.94a8.65,8.65,0,0,1,1.36,5.16c-.1,1.65-.06,3.32,0,5a3.64,3.64,0,0,1-1.26,3.32H336.2V97.05c.45-.48.54.68,1.12.38.39-.2,1,0,1.69,0l1.21,1.51c1.56-.06,3,.23,4.24-.68,1.31.82,2.19,2.37,3.91,2.15A5,5,0,0,0,351.35,98.37Z" style="fill: #ccdcee"/>
    <path d="M253.25,31.45V17.77c2.84-3.91,6.58-7.28,9.58-11.19l9.81,11.07v13.8Z" style="fill: #ccdcee"/>
    <path d="M148.9,91h25.81v12.7c-2,.34-18.7.45-25.81.15Z" style="fill: #ccdcee"/>
    <path d="M281.67,28.53a64.73,64.73,0,0,1-5.18,5.92H248.86c-.2-.39.23-.38.22-.64-.73-.69-.73-.69-1.84-.57l0,.48c.16.5.8.12,1,.55-.06.06-.11.16-.17.16h-6.2c-.05-.47.41-.59.59-.88l.64.46c.63,0,.75-.48,1.22-.77l-1.12-.75a46.75,46.75,0,0,1,5-7A5.69,5.69,0,0,1,250,23.06a1.15,1.15,0,0,0,1.71.28l0-.5c-.32-.58-.92-.12-1.46-.45.32-.39.84-.75.91-1.18.09-.58.52-.79,1-1.38V32.45h5.75l1,1c1,.53,1.48-.31,2.05-.83h4.64c.22.38-.17.4-.31.82l1.21.7c.19,0,.35-.59.78-.79l-.66-.73h7.07V18.17H278c.14-.31.34.4.09.18l-.17.17c-.08.11-.15.23-.25.4a3.22,3.22,0,0,0,2,0l-.47-.57c0-.05,0-.16.07-.16h11.15c0,1-.81,1.66-1.61,2.43h-2c-.52,1.05.47.81.77,1.1a17.22,17.22,0,0,1-3.73,4.38C283.07,26.86,282.93,28.19,281.67,28.53Z" style="fill: #ccdcee"/>
    <path d="M148.91,104.92H174.7v7.71c-2,.35-18.16.46-25.79.15Z" style="fill: #ccdcee"/>
    <path d="M243,113.36h-6.49c-.56-.66-.56-1.63-1.26-2.24,0-3.22,0-6.46,0-9.7a2.54,2.54,0,0,1,.49-2c.07-.49-.38-.57-.44-.75a54.1,54.1,0,0,1,1.55-6c.47-1.89,1.76-3.57,2.73-5.42,1,.36,1.17,1.45,1.45,2.19.95,2.52,1.56,5.16,2.69,7.62a1,1,0,0,1,0,.49c-.17,3,.81,6,.53,9-.16,1.76-.81,3.46-.57,5.28C243.73,112.37,243.22,112.88,243,113.36Z" style="fill: #ccdcee"/>
    <path d="M240,77.35c.91-.68,1.65-.13,2.2-.61l.05-.49c-.3-.61-.9-.14-1.39-.42.13-1.09,1.09-2,.84-3.28h37.18c-.75.66-1.56.13-2.25.7l.9.69a2.06,2.06,0,0,0,1.51-.43,17.66,17.66,0,0,1,1.27,3.84Z" style="fill: #ccdcee"/>
    <path d="M104,93h8.31v19.87H104Z" style="fill: #ccdcee"/>
    <path d="M307.47,3.16a.75.75,0,0,0-.9.25c-1,.94-1.56,2.24-2.62,3.17a7.4,7.4,0,0,0-2.51,2.94c-.08.21-.33.37-.52.53-2.13,1.81-3.7,4.14-5.59,6.18-2.59,2.8-5.05,5.73-7.6,8.57s-4.87,5.66-7.4,8.41c-.81.87-1.49,1.89-2.34,2.75-10.81.34-34.62.2-37.34-.33h36.06c2.75-2.23,4.66-5,7-7.47s4.48-5.11,6.74-7.66c2.58-2.92,5.15-5.85,7.74-8.77,2.43-2.73,4.63-5.66,7.3-8.16.65-.61.59-1.73,1.62-2a1.19,1.19,0,0,1,.44.13c1.08.88,1.59,2.22,2.62,3.17s2.19,1.73,2.69,3.11c.08.21.33.37.52.53,2.13,1.81,3.7,4.15,5.59,6.19,2.59,2.79,5.05,5.72,7.6,8.56s4.92,5.62,7.39,8.42c1.21,1.36,2.46,2.72,3.67,4.09-.42.39-.85.15-1.4.25-1.46-2.36-3.82-4.06-5.32-6.49a2.61,2.61,0,0,0-.52-.53c-2.33-2-4.08-4.49-6.13-6.72-2.52-2.74-4.92-5.6-7.42-8.38s-4.75-5.55-7.22-8.24C308.8,4.81,308.1,3.85,307.47,3.16Z" style="fill: #ccdcee"/>
    <path d="M145.86,80.07l-.08,1.13c-.2.24-.28.07-.44,0-1.3-.35-2.06-1.48-3.06-2.21-4-2.89-8-5.78-11.83-8.8-4.14-3.23-8.54-6.1-12.6-9.44-1.89-1.55-4-2.89-5.89-4.42a2.87,2.87,0,0,0-2.12-.88l-24,18c-.29.07-.49-.36-.79-.62s-.2-.2,0-.36c1.77-1.34,3.53-2.71,5.31-4.05,1.58-1.19,3.19-2.34,4.77-3.53,3.17-2.37,6.36-4.73,9.52-7.11,1.84-1.39,3.9-2.56,5.44-4.36Z" style="fill: #ccdcee"/>
    <path d="M185.28,79.06v2.11c-.32.33-29.08.48-38.27.2-.55-.63.35-1.71-1.16-2.31Z" style="fill: #ccdcee"/>
    <path d="M260.12,107.33H251.3V88.07l.61-.61h7.58l.63.63Z" style="fill: #ccdcee"/>
    <path d="M269.44,107.38h-8.15c-.2-3.28-.07-6.56-.09-9.84s0-6.62,0-10h7.85l.64.76c0,6.12,0,12.41,0,18.71C269.68,107.11,269.52,107.24,269.44,107.38Z" style="fill: #ccdcee"/>
    <path d="M83.13,114.35H79.67c-.83-.89-.69-2-.8-3.13-.28-2.79.58-5.48.63-8.25a7.43,7.43,0,0,1,1.7-4.07c.76-.07.54.56.77.77.86.8.2,2,.87,2.9a3.65,3.65,0,0,1,.53,3c-.26,1,.68,1.58.57,2.54a4.83,4.83,0,0,0,.35,2.57A3.26,3.26,0,0,1,83.13,114.35Z" style="fill: #ccdcee"/>
    <path d="M69.22,98.54a22.5,22.5,0,0,1,2.27,15.25H67.55c-.66-.29-.55-1.23-1.15-1.69a43.09,43.09,0,0,1,.4-4.52c.22-1.48.6-3,.74-4.48S68.5,100.38,69.22,98.54Z" style="fill: #ccdcee"/>
    <path d="M58.14,98.6c.84,2.26,1.62,4.18,2.24,6.16a9.18,9.18,0,0,1,0,2.23c.1,1.68-.31,3.39.46,5a4.64,4.64,0,0,1,0,1.76h-4.8c-.89-1.58-.56-3.38-.73-5.13s.48-3.33.61-5S57.05,100.43,58.14,98.6Z" style="fill: #ccdcee"/>
    <path d="M69.45,95.82V89.49h6.9c0,1,0,2,.05,3.05s0,2.13,0,3.28Z" style="fill: #ccdcee"/>
    <path d="M68.33,95.86H61.5V89.42h6.83Z" style="fill: #ccdcee"/>
    <path d="M72.33,104.42h5.9c.71,1.42-.62,2.59-.38,4a27,27,0,0,1,.05,4.33H73C72.58,110.09,73.44,107.28,72.33,104.42Z" style="fill: #ccdcee"/>
    <path d="M280.63,78.52v.83H240.27v-.83Z" style="fill: #ccdcee"/>
    <path d="M93.63,82,69.41,64H68.28a89.38,89.38,0,0,1-7.53,5.59c-.68-.73-.18-1.08.19-1.35,2.6-1.92,5.23-3.81,8-5.79,2,1.48,4.15,3,6.22,4.54,2.53,1.9,5.05,3.81,7.6,5.67,1.48,1.07,2.91,2.21,4.38,3.29s3.17,2.37,4.78,3.51C92.74,80,93.59,80.6,93.63,82Z" style="fill: #ccdcee"/>
    <path d="M66.28,103.32h-4.8V97h7C68.17,99.32,66.9,101.23,66.28,103.32Z" style="fill: #ccdcee"/>
    <path d="M248.76,112.79v-1.34h23.38v1.34Z" style="fill: #ccdcee"/>
    <path d="M76.31,103.34H72c0-2.42-1.21-4.33-2.65-6.31a17.42,17.42,0,0,1,3.44-.13c1.15,0,2.3,0,3.54,0Z" style="fill: #ccdcee"/>
    <path d="M61.88,112.78c.37-2.82-.92-5.47-.36-8.31h4.25c.75,2.72-1,5.43-.18,8.31Z" style="fill: #ccdcee"/>
    <path d="M263,5.08A89.09,89.09,0,0,0,256.67,12c-1.52,1.71-3.19,3.27-4.63,5.05-.49-.32-.37-.61-.11-1,1.3-1.8,3-3.22,4.36-5,1-1.37,2.26-2.55,3.42-3.8s1.8-2.72,3.27-3.66l11.39,13-.76.55Z" style="fill: #ccdcee"/>
    <path d="M250.26,110.29V109h20.38v1.33Z" style="fill: #ccdcee"/>
    <path d="M278.64,108.94v3.84h-4.8c-.48-.43.06-1.16-.31-1.88s-1.18-.39-1.79-.69v-1.27Z" style="fill: #ccdcee"/>
    <path d="M55.62,90.36c1.45.25,1.75-.86,2.5-1.37.56.73,1.44.23,2.12.5.27.2.16.46.16.72-.9.48-1.92,0-2.82.3-.24.2-.15.45-.13.72.9.44,1.92,0,2.9.31v1.7c-.87.42-1.89-.06-2.86.28l-.07.85h2.94V96.3H57.9c-.84.43-.14,1.23-.72,1.59-.45-.42-.34-4.34.21-5.77Z" style="fill: #ccdcee"/>
    <path d="M249.21,108.89v1.22c-.34.52-.93.07-1.42.4v2.23h-3V108.9C246.21,108.86,247.71,108.86,249.21,108.89Z" style="fill: #ccdcee"/>
    <path d="M77.94,90.4v.93h2.67c.46.65.26,1.29.22,2H77.48c-.21-1.17,0-2.46-.12-3.82h3.49v.9Z" style="fill: #ccdcee"/>
    <path d="M77.44,96.32V94c1,.7,2.16.33,3.26.45a2.91,2.91,0,0,1,.12,1.9Z" style="fill: #ccdcee"/>
    <path d="M80.81,97.06c.49.76-.9,1-.26,1.75h-3c-.39-.47-.12-1.11-.15-1.85A3.65,3.65,0,0,0,80.81,97.06Z" style="fill: #ccdcee"/>
    <path d="M58.35,97.54c.76-.24,1.43.06,1.94-1,.21,1.58.08,2.85.15,4.44-.48-.77-1-1.18-1-1.8C59.5,98.39,58.79,98.15,58.35,97.54Z" style="fill: #ccdcee"/>
    <path d="M77.55,98.85c.33,1.53,1.53.6,2,1.59a4.45,4.45,0,0,1-1.87,1C77.24,100.71,77.43,100.05,77.55,98.85Z" style="fill: #ccdcee"/>
    <path d="M77.58,101.92c.45.3.88.57.82,1.21a.63.63,0,0,1-.83.18A1.34,1.34,0,0,1,77.58,101.92Z" style="fill: #ccdcee"/>
    <path d="M55.92,90.41a.43.43,0,0,1-.5-.5C55.77,89.9,55.93,90.06,55.92,90.41Z" style="fill: #ccdcee"/>
    <path d="M316.64,105.38a.35.35,0,0,1,.44.3s-.11.15-.15.14A.34.34,0,0,1,316.64,105.38Z" style="fill: #ccdcee"/>
    <path d="M303.15,105.88c0,.24,0,.46-.33.39-.08,0-.11-.25-.17-.39C302.82,105.63,303,105.63,303.15,105.88Z" style="fill: #ccdcee"/>
    <path d="M285.67,106.38a.35.35,0,0,1,.44.3s-.1.15-.14.14A.35.35,0,0,1,285.67,106.38Z" style="fill: #ccdcee"/>
    <path d="M54.93,61a.35.35,0,0,1,.44.3s-.11.15-.15.14A.34.34,0,0,1,54.93,61Z" style="fill: #ccdcee"/>
    <path d="M183.79,109.62c.16-.23.32-.23.49,0C184.11,109.85,184,109.85,183.79,109.62Z" style="fill: #ccdcee"/>
    <path d="M284.67,111.37a.36.36,0,0,1,.3-.45s.15.11.15.15A.36.36,0,0,1,284.67,111.37Z" style="fill: #ccdcee"/>
    <path d="M371.88,95.27a3.19,3.19,0,0,0,3.84,0c1.08,1.09,2.19,2.49,4,2.06a3.46,3.46,0,0,0,2.49-3,6.23,6.23,0,0,0,4.14-.6A3.44,3.44,0,0,0,388,90h2.31c.17.79.87,1.26,1.4,1.85a7.92,7.92,0,0,1,2.34,5.77c-.09,2.48.35,5-.13,7.45-.44,2.21-.16,4.37-.46,6.63l-1.15,1.11H366.24c-.21-.38.17-.4.25-.62-.08-.37-.41-.55-.68-.77l-.51.42-.6-.59c-.69-2.82.85-5.58.32-8.38,1-1.63,3-1.92,4.07-3.28S370.88,96.84,371.88,95.27Z" style="fill: #ccdcee"/>
    <path d="M397.76,82.89l1.73,1.75c-1.14,1.87-1.8,4-3.33,6-.27-1.65,0-3.09-.55-4.47a1.71,1.71,0,0,1,.6-2.25c-.52-.73-1.11-.29-1.51-.55-.27-.5.46-.39.19-1A3.87,3.87,0,0,0,397.76,82.89Z" style="fill: #ccdcee"/>
    <path d="M392.13,85.48l1.34.59v4.06l-1.34-1.23Z" style="fill: #ccdcee"/>
    <path d="M366.72,98.08c-.9.63-1.33,1.63-2.32,1.86-.5-.38-.24-.83-.37-1.45C365,98.75,365.58,97.63,366.72,98.08Z" style="fill: #ccdcee"/>
    <path d="M366.36,99.82c.72-.55,1.07-1.39,2.09-1.31C367.9,99.08,367.71,100.12,366.36,99.82Z" style="fill: #ccdcee"/>
    <path d="M387.05,75.15c.9-.53,1.07.22,1.52.58C387.66,76.26,387.49,75.51,387.05,75.15Z" style="fill: #ccdcee"/>
    <path d="M394.9,84.63l-.65,1.05C394.15,84.47,394.15,84.47,394.9,84.63Z" style="fill: #ccdcee"/>
    <path d="M407,79.93c.74,0,.42.62.5,1C406.79,80.89,407.11,80.31,407,79.93Z" style="fill: #ccdcee"/>
    <path d="M366.08,100.39c0,.75-.62.42-1,.5C365.12,100.14,365.7,100.46,366.08,100.39Z" style="fill: #ccdcee"/>
    <path d="M365.08,100.89a.43.43,0,0,1-.5.5A.43.43,0,0,1,365.08,100.89Z" style="fill: #ccdcee"/>
    <path d="M366.58,99.89c0,.35-.15.51-.5.5C366.07,100,366.23,99.88,366.58,99.89Z" style="fill: #ccdcee"/>
    <path d="M376.07,45.5h-1.41c-.34,0-.62-.07-.59-.5h1.41C375.82,45,376.1,45.07,376.07,45.5Z" style="fill: #ccdcee"/>
    <path d="M420.49,72.21c.38-.36.66-.34,1-.09C421.27,72.67,421,72.51,420.49,72.21Z" style="fill: #ccdcee"/>
    <path d="M22.46,91.41a.35.35,0,0,1-.3.44s-.15-.11-.15-.14A.36.36,0,0,1,22.46,91.41Z" style="fill: #ccdcee"/>
    <path d="M351.1,67.46c-.08.37.24,1-.5,1C350.67,68.08,350.35,67.5,351.1,67.46Z" style="fill: #ccdcee"/>
    <path d="M384.06,62a.35.35,0,0,1-.3.44s-.15-.11-.14-.15A.35.35,0,0,1,384.06,62Z" style="fill: #ccdcee"/>
    <path d="M323.63,99.84H290.77V79.08l.59-.6h31.56a1.78,1.78,0,0,1,.73,1.7c0,5,0,10,0,14.94Z" style="fill: #a6cbff"/>
    <path d="M322.33,63.9a1.71,1.71,0,0,1,.76,1.89l-.93.33v2.24H310.8a15.47,15.47,0,0,0-1.67-4.31c.08-.64.61-.83.95-1.3v-14c-.37-.76-1.23-1.51-.83-2.7H323.9c-1.63,2-1.26,4.1-1.27,6.16,0,3.49,0,7,0,10.52l1.2.42a5.37,5.37,0,0,0-1.49.69c.1-.07-.09-.19-.23-.23C322.24,63.71,322.45,63.82,322.33,63.9Z" style="fill: #a6cbff"/>
    <path d="M291.66,64c-.3-.08-.67.15-.94-.2-.29-.85.62-1,.94-1.59,0-3.76,0-7.57,0-11.38,0-1.2.17-2.44-.83-3.39-.36-.34-.08-.78-.2-1.29H305c.55.56-.25.78-.36,1.18a8.09,8.09,0,0,0-.54,2.28c.07,4.39,0,8.78,0,13.4l1,1a4.73,4.73,0,0,1-1.46,2.25V67.7c-.23.24-.47.47-.73.73H292.48c-.88-.87-.56-2.44-1.77-3.14C290.9,64.74,291.6,64.58,291.66,64Z" style="fill: #a6cbff"/>
    <path d="M313.39,35.48H300.9l-.69-.63V21.74l.61-.61h12.65l.67.67c0,4,0,7.94,0,11.93C314.15,34.42,314.14,35.05,313.39,35.48Z" style="fill: #a6cbff"/>
    <path d="M317.09,106.93v1.93c-.9.07-1.91-.2-2.56.66-.88-.93,0-1.55.36-1.57A3.57,3.57,0,0,0,317.09,106.93Z" style="fill: #a6cbff"/>
    <path d="M323.6,109.65l-.65.65h-2.27v-1.21c.18-.33.46-.17.71-.24l.48,1,.92-.91C323.19,109,323.36,109.39,323.6,109.65Z" style="fill: #a6cbff"/>
    <path d="M303.15,105.88h-.5c.06-.47-.14-1,.15-1.4a.61.61,0,0,1,.83.13C304,105.23,303.07,105.37,303.15,105.88Z" style="fill: #a6cbff"/>
    <path d="M136.16,92a5.25,5.25,0,0,1,.69,2.85c-.06,1.74,0,3.49,0,5.23a1.13,1.13,0,0,0,.5,1c-.76.61-1.9.64-2.47,1.56.44.4.76.23,1.07-.12s.79,0,1.13-.2c.79.87,0,1.61-.28,2.19s-.38,1.44-1.26,1.84c-.86,0-1.85,0-2.84,0-.7,0-1.45-.28-2.08.42a1.25,1.25,0,0,1-1.18,0c-1.38-.8-2.86-.4-4.3-.45a3.59,3.59,0,0,1-2.84-1,4.83,4.83,0,0,1-.52-1.87l-.9-.3a1.71,1.71,0,0,1,.15-.75c.42-.72,1.26-.46,1.89-.71-.25-.42-.52-.34-.85-.36.53-1.52.26-3.08.3-4.63s0-3.13,0-4.77Z" style="fill: #a6cbff"/>
    <path d="M114.86,76.68a4.26,4.26,0,0,0-1.07,2.06c-.8.05-1.15.78-1.71,1.18h-2.91c-1.85-1-3.52-2.23-3.26-4.58.12-1.13.31-2.44,1.45-3.1a29.27,29.27,0,0,1,3.21-1.39c1.72.78,3.58,1.3,4.29,3.71Z" style="fill: #a6cbff"/>
    <path d="M116.86,92.08c.77-.41,1.54,0,2.47.72l.53,1.15c-.36.78-1,1.4-1,2.34a1.06,1.06,0,0,1-1.31,1.09c-.7-.09-1.23-.46-1.15-1.25s-.66-.89-1-1.71V93.05Z" style="fill: #a6cbff"/>
    <path d="M100.37,92.55v2.64c-.65.5-1.23,1.06-1,2-1.74.15-1.74.15-2.1-1.62-.19-.37-.7.05-.88-.55V93.09l1.23-1C98.55,91.54,99.35,92.23,100.37,92.55Z" style="fill: #a6cbff"/>
    <path d="M97.81,105.54c.47,1.5-1.85.95-1.59,2.29H95.1c-.31-.24-.2-.49-.2-.72.16-.44.83,0,.93-.53l-.49-.5C96.22,105.86,96.81,105,97.81,105.54Z" style="fill: #a6cbff"/>
    <path d="M104.91,88.29v-.75a3.19,3.19,0,0,1,1.91,0v.75A3.19,3.19,0,0,1,104.91,88.29Z" style="fill: #a6cbff"/>
    <path d="M139.87,103.76V103a3.19,3.19,0,0,1,1.91,0v.75A3.19,3.19,0,0,1,139.87,103.76Z" style="fill: #a6cbff"/>
    <path d="M125.42,70.91h-1.83c-.36-.21-.19-.49-.26-.73a2.58,2.58,0,0,1,1.8-.17C125.46,70.2,125.3,70.47,125.42,70.91Z" style="fill: #a6cbff"/>
    <path d="M117.4,85.47v-.92a1.32,1.32,0,0,1,1.89.71C118.65,85.61,118.05,85.29,117.4,85.47Z" style="fill: #a6cbff"/>
    <path d="M138.36,90.33a1.33,1.33,0,0,1,1.92-.79v.79Z" style="fill: #a6cbff"/>
    <path d="M100,73.4H98.62c-.36-.21-.2-.48-.26-.69.4-.52.91-.09,1.2-.26C100,72.69,99.83,73,100,73.4Z" style="fill: #a6cbff"/>
    <path d="M251.21,64c-.31-.07-.67.13-.94-.17-.29-.89.62-1,.94-1.61,0-3.79,0-7.61,0-11.43,0-1.22.06-2.41-.86-3.39-.31-.33-.11-.77-.11-1.27H270.8c-.36.79-.45,1.56-1,2.08V60.83c.37.16.41-.19.63-.28.75.22-.1.86.33,1.05-.34.78-1.11.77-1.54,1.2-.09,1.11,1.38.49,1.47,1.41,0,.36.16.77-.13,1.17l-1.24.15v2.65c-2.07.36-12,.45-17.51.17V66.77l-1.5-1.5C250.45,64.74,251.14,64.58,251.21,64Z" style="fill: #a6cbff"/>
    <path d="M182.28,95.22c-1.06.32-.79,1.9-2,2.18-1-.24-1-1.09-1.11-1.85l-.88-.32v-2.5a3.35,3.35,0,0,1,2.85-.75l.85,1.46.27-.26Z" style="fill: #a6cbff"/>
    <path d="M181.25,83.46h2.29c.35.21.21.48.26.81a6.2,6.2,0,0,1-2.25.13C181.18,84.17,181.32,83.9,181.25,83.46Z" style="fill: #a6cbff"/>
    <path d="M148.08,86.39c.88-.77,1.77-.3,2.65-.55-.76,1-.77,1.09-1,1.06C149.23,86.86,148.71,87.13,148.08,86.39Z" style="fill: #a6cbff"/>
    <path d="M165.85,87V86h2.4C167.73,87.33,166.73,86.8,165.85,87Z" style="fill: #a6cbff"/>
    <path d="M176.78,109.16c.36-.51,1.19,0,1.13-1a1.32,1.32,0,0,0,1.74.55C178.12,110,178.12,110,176.78,109.16Z" style="fill: #a6cbff"/>
    <path d="M257.74,85.35V83.57l1.23-.88c.28-.55,1.09.18,1.28-.64.83-.19,2.52,1.13,3.46,2.71l-.83.3.22.29Z" style="fill: #a6cbff"/>
    <path d="M271.75,88.45H274c.7,1,.7,1,.7,4.19-1.31,1-1.46,1-2.93.11Z" style="fill: #a6cbff"/>
    <path d="M248.63,93.4H247l-.7-.7V88.49h2.29l.67.72C249,90.49,249.66,92,248.63,93.4Z" style="fill: #a6cbff"/>
    <path d="M258.78,17.1h7.32V27.39l-.7.6h-6.62Z" style="fill: #a6cbff"/>
    <path d="M163.85,98.89V94.4c1.63,0,3.27-.08,4.89,0s3.11-.55,4.5.54v3.18l-.68.74Z" style="fill: #a6cbff"/>
    <path d="M160,94.37l.73.73v3.72h-9.39c-.13-1.18,0-2.47-.06-3.66.25-.26.41-.56.61-.59C154.62,94.2,157.33,94.52,160,94.37Z" style="fill: #a6cbff"/>
    <path d="M279.06,20.63l1,1.12a1.27,1.27,0,0,1-1.81.69C277.89,21.48,278.83,21.47,279.06,20.63Z" style="fill: #a6cbff"/>
    <path d="M250.58,31.12c-.59-.47-.33-1-.31-1.41a1.33,1.33,0,0,1,1.4,0C251.85,30.65,251.16,30.84,250.58,31.12Z" style="fill: #a6cbff"/>
    <path d="M286.65,19.32c-.13.08-.26.21-.39.22-.48,0-.95,0-1.28,0-.41-.25-.28-.52-.32-.77C285.54,18.19,286.12,18.63,286.65,19.32Z" style="fill: #a6cbff"/>
    <path d="M274.22,20.39v-.66c.64-.39,1.25,0,2-.26a5.39,5.39,0,0,1-.26.57A1.26,1.26,0,0,1,274.22,20.39Z" style="fill: #a6cbff"/>
    <path d="M277.14,23.67v.74a3,3,0,0,1-1.91,0A1.33,1.33,0,0,1,277.14,23.67Z" style="fill: #a6cbff"/>
    <path d="M278.72,25.91a1.35,1.35,0,0,1,1.91-.75v.75A3,3,0,0,1,278.72,25.91Z" style="fill: #a6cbff"/>
    <path d="M274.73,30.4a1.33,1.33,0,0,1,1.91-.74v.74A3,3,0,0,1,274.73,30.4Z" style="fill: #a6cbff"/>
    <path d="M272.65,33.06h1.79c.28.15.23.21.09.39a1.38,1.38,0,0,1-1.67.49C272.58,33.77,272.72,33.5,272.65,33.06Z" style="fill: #a6cbff"/>
    <path d="M282.6,22.59h1.33c.35.2.19.48.25.69-.4.52-.9.08-1.19.26C282.56,23.29,282.72,23,282.6,22.59Z" style="fill: #a6cbff"/>
    <path d="M248.2,25.61h1.44l.06.69c-.44.39-.89.25-1.44.11Z" style="fill: #a6cbff"/>
    <path d="M275.75,28h-1.32c-.36-.2-.2-.48-.26-.69.4-.52.9-.08,1.2-.26C275.79,27.29,275.63,27.56,275.75,28Z" style="fill: #a6cbff"/>
    <path d="M281.66,28.45h-2.41l1.66-.94C281.21,27.49,281.47,28,281.66,28.45Z" style="fill: #a6cbff"/>
    <path d="M248.39,28.4c-.43.87-1,.61-1.49.56-.3-.17-.15-.44-.19-.68C247.21,27.88,247.71,27.89,248.39,28.4Z" style="fill: #a6cbff"/>
    <path d="M245.64,31.07H247c.35.21.19.48.25.7-.4.52-.9.08-1.19.25C245.6,31.78,245.76,31.5,245.64,31.07Z" style="fill: #a6cbff"/>
    <path d="M255.16,33.11v.72a1.34,1.34,0,0,1-1.45,0C253.67,32.54,254.54,33.15,255.16,33.11Z" style="fill: #a6cbff"/>
    <path d="M251.44,27a.6.6,0,0,1,.19.82,1.35,1.35,0,0,1-1.41,0C250.55,27.42,250.8,27,251.44,27Z" style="fill: #a6cbff"/>
    <path d="M245.62,76.28l.76-.76h2.25C248.46,76.5,248.46,76.5,245.62,76.28Z" style="fill: #a6cbff"/>
    <path d="M245.76,74v-.88c.64-.36,1.25,0,1.9-.21v.88C247,74.13,246.42,73.82,245.76,74Z" style="fill: #a6cbff"/>
    <path d="M271.64,73.07v.75a3.19,3.19,0,0,1-1.91,0v-.76A3.27,3.27,0,0,1,271.64,73.07Z" style="fill: #a6cbff"/>
    <path d="M277.43,76.9h-2.58C275.79,75.63,275.82,75.63,277.43,76.9Z" style="fill: #a6cbff"/>
    <path d="M264.66,76h1.79c.35.21.21.48.25.73a2.61,2.61,0,0,1-1.79.17C264.59,76.69,264.73,76.42,264.66,76Z" style="fill: #a6cbff"/>
    <path d="M255.25,74.48v-.87c.66-.35,1.27-.06,1.9-.2v.86C256.5,74.62,255.89,74.33,255.25,74.48Z" style="fill: #a6cbff"/>
    <path d="M259.68,76A1.41,1.41,0,0,1,261.46,75l.77.77C261.38,76.19,260.57,75.77,259.68,76Z" style="fill: #a6cbff"/>
    <path d="M271.43,75.94c.75-.1,1.38,0,1.68.88a3,3,0,0,1-1.81,0A.64.64,0,0,1,271.43,75.94Z" style="fill: #a6cbff"/>
    <path d="M260.88,73l-.88.89h-1.2l-.13-.73C259.37,72.75,260,73,260.88,73Z" style="fill: #a6cbff"/>
    <path d="M251.71,73v.66c-.88.67-1.45.13-2-.55A3.16,3.16,0,0,1,251.71,73Z" style="fill: #a6cbff"/>
    <path d="M267.5,75.15a3.38,3.38,0,0,1,2.11-.1,1.19,1.19,0,0,1-.92.89C268.15,75.93,268.08,75.39,267.5,75.15Z" style="fill: #a6cbff"/>
    <path d="M253.16,75.13v.63a1.31,1.31,0,0,1-1.41,0v-.63A1.31,1.31,0,0,1,253.16,75.13Z" style="fill: #a6cbff"/>
    <path d="M274.73,75.25v-.63a1.29,1.29,0,0,1,1.4,0v.63A1.29,1.29,0,0,1,274.73,75.25Z" style="fill: #a6cbff"/>
    <ellipse cx="242.97" cy="74.44" rx="0.85" ry="0.56" style="fill: #a6cbff"/>
    <path d="M255.2,75.94c.55,0,.61.55,1.19.79a3.3,3.3,0,0,1-2.11.09A1.18,1.18,0,0,1,255.2,75.94Z" style="fill: #a6cbff"/>
    <path d="M263.74,73.86v-.72a1.32,1.32,0,0,1,1.45,0C265.23,74.43,264.35,73.81,263.74,73.86Z" style="fill: #a6cbff"/>
    <path d="M105.46,95.56l.64-.64.72.67v15.07l-.6.6c-.39.12-.41-.36-.76-.48Z" style="fill: #a6cbff"/>
    <path d="M110,111.44l-.31-.89-.28.22V94.94h.83v16.33Z" style="fill: #a6cbff"/>
    <path d="M259.2,95.85h-6.9V89h6.2c.3.35.73.58.72,1.19C259.17,92,259.2,93.93,259.2,95.85Z" style="fill: #a6cbff"/>
    <path d="M259.12,106.21l-.63.62h-5.58l-.64-.63v-5.69h6.85Z" style="fill: #a6cbff"/>
    <path d="M252,98h7.16l.14.23-1.4.6C253.88,99.09,253.42,99.05,252,98Z" style="fill: #a6cbff"/>
    <path d="M268,89l.61.62v6.2h-6.85a19.76,19.76,0,0,1-.09-3.29c0-1.15,0-2.3,0-3.53Z" style="fill: #a6cbff"/>
    <path d="M261.7,100.43h6.9v5.81l-.73.6h-5.45a1.66,1.66,0,0,1-.75-1.49C261.74,103.78,261.7,102.21,261.7,100.43Z" style="fill: #a6cbff"/>
    <path d="M268,98.89h-5.44L261.9,98h6.68C268.65,98.52,268,98.52,268,98.89Z" style="fill: #a6cbff"/>
    <path d="M297.07,98.85h-5.33V93c.79,0,1.67-.06,2.55-.07s1.8,0,2.78,0Z" style="fill: #ccdcee"/>
    <path d="M291.75,80h5.32v5.35a9.14,9.14,0,0,1-2.53.09c-.9,0-1.8,0-2.79,0Z" style="fill: #ccdcee"/>
    <path d="M291.75,86.46h5.32v5.35a10,10,0,0,1-2.53.09c-.9,0-1.81,0-2.79,0Z" style="fill: #ccdcee"/>
    <path d="M311.23,93h4.82v5.83a7.11,7.11,0,0,1-2.28.11c-.82,0-1.64,0-2.54,0Z" style="fill: #ccdcee"/>
    <path d="M322.55,98.85h-4.83V92.92c1.52,0,3.13,0,4.83,0Z" style="fill: #ccdcee"/>
    <path d="M298.24,93h4.83v5.83a7.49,7.49,0,0,1-2.29.11c-.82,0-1.64,0-2.54,0Z" style="fill: #ccdcee"/>
    <path d="M304.73,93h4.83v5.83a7.47,7.47,0,0,1-2.29.11c-.82,0-1.64,0-2.54,0Z" style="fill: #ccdcee"/>
    <path d="M303.07,85.38h-4.83V80a7.49,7.49,0,0,1,2.29-.1c.82,0,1.64,0,2.54,0Z" style="fill: #ccdcee"/>
    <path d="M309.56,85.38h-4.83V80a7.49,7.49,0,0,1,2.29-.1c.82,0,1.64,0,2.54,0Z" style="fill: #ccdcee"/>
    <path d="M311.23,80h4.82v5.34a7.47,7.47,0,0,1-2.29.1c-.81,0-1.63,0-2.53,0Z" style="fill: #ccdcee"/>
    <path d="M322.55,91.86h-4.83V86.53a7.47,7.47,0,0,1,2.29-.11c.82,0,1.64,0,2.54,0Z" style="fill: #ccdcee"/>
    <path d="M322.54,85.38h-4.82V80a7.12,7.12,0,0,1,2.28-.1c.82,0,1.64,0,2.54,0Z" style="fill: #ccdcee"/>
    <path d="M311.23,86.46h4.82V91.8a7.47,7.47,0,0,1-2.29.1c-.81,0-1.63,0-2.53,0Z" style="fill: #ccdcee"/>
    <path d="M304.73,86.46h4.83V91.8a7.88,7.88,0,0,1-2.3.1c-.81,0-1.63,0-2.53,0Z" style="fill: #ccdcee"/>
    <path d="M303.07,91.86h-4.83V86.54h4.83Z" style="fill: #ccdcee"/>
    <path d="M311.19,56.39V49.08h10.36a22.71,22.71,0,0,1,.07,3.52c0,1.24,0,2.47,0,3.79Z" style="fill: #ccdcee"/>
    <path d="M316.62,61.57c-.67-.3-.29-.93-.78-1.1l-.47,0c-.58.33.15,1.14-.7,1.51V59.54l-.83,0c-.42.6-.06,1.3-.29,2l-.61-.49c-.84.11-.5,1.51-1.53,1.44-.09-.14-.26-.27-.26-.4,0-1.47,0-2.95,0-4.52H321l.59.73v2c-.75.8-1.94,1-2.54,2.3-.05.15.35.37.56.65-.18.31-.44.23-.68.24a5.69,5.69,0,0,0-2.11-3.41C316.48,60.49,316.7,61,316.62,61.57Z" style="fill: #ccdcee"/>
    <path d="M320.41,63.87c.31.52.59,1,.88,1.49-.47.36,0,1.25-.29,2h-9c-1.52-.39-.24-2.06-1.64-2.84,1.79,0,3.19.77,4.63.38a6.23,6.23,0,0,0,.18.6,4.1,4.1,0,0,0,.22.41c.37-.39,1.06-.56.64-1.52,1.07.76,2,.48,2.89.56.53.39,0,1,.37,1.37a.65.65,0,0,0,.72,0C320.44,65.66,319.82,64.77,320.41,63.87Z" style="fill: #ccdcee"/>
    <path d="M322.29,47.08l-.83.83H310.69v-.83Z" style="fill: #ccdcee"/>
    <path d="M316.74,61.47c.4.36.95.51.92.84-.08.69-.4.67-.74.65C316.34,62.57,316.77,62,316.74,61.47Z" style="fill: #ccdcee"/>
    <path d="M315.69,63.27l-1,.37C314.36,63.1,314.82,63,315.69,63.27Z" style="fill: #ccdcee"/>
    <path d="M320.36,62.55c.57-.67.89-.72,1.23-.38C321.4,62.69,321,62.38,320.36,62.55Z" style="fill: #ccdcee"/>
    <path d="M321.67,63.66c.34-.31.83-.32.92.08s-.45.07-.67.21C321.9,64,321.76,63.77,321.67,63.66Z" style="fill: #ccdcee"/>
    <path d="M312.1,63.71c.41-.32.69-.34,1-.07C312.87,64.18,312.56,64,312.1,63.71Z" style="fill: #ccdcee"/>
    <path d="M320.63,62.47a.35.35,0,0,1-.3.44s-.15-.11-.14-.15A.34.34,0,0,1,320.63,62.47Z" style="fill: #ccdcee"/>
    <path d="M303.15,49.24V56.4c-3.43.18-6.87,0-10.4.09V49.24A52.36,52.36,0,0,1,303.15,49.24Z" style="fill: #ccdcee"/>
    <path d="M297.66,61c-.08-.31.16-.67-.29-1-1.42.18-1.29,1.69-1.95,2.5-.5.09-.67-.08-.79-.61-.21-.87-1-.93-1.87-.91v-3.4h9.7l.62.63v4.25H301.8l-.31-.88-1.15-.12c-.49-.37.11-1-.31-1.33-1-.49-.72.56-1.1.86l-.51-.44C298.14,60.6,298.06,61.05,297.66,61Z" style="fill: #ccdcee"/>
    <path d="M297.66,64.46c1.82.81,3,.65,5.43,0,.23,1-.95,1.77-.24,2.86h-9.56l-.52-.52V64.55c.6-.23.86.09,1.11.41h2.51c.51.34.73,1.15,1.63,1C298.06,65.39,297.43,65,297.66,64.46Z" style="fill: #ccdcee"/>
    <path d="M303.65,47.25l-.7.7H292.39c-.33-.22-.2-.49-.21-.72C292.55,46.85,301.39,46.86,303.65,47.25Z" style="fill: #ccdcee"/>
    <path d="M298.65,63v-1.8c.68.8,1.27,1.12,1.5,1.8Z" style="fill: #ccdcee"/>
    <path d="M297.6,61v1.34c-.44.21-.8.33-1-.25A1.19,1.19,0,0,1,297.6,61Z" style="fill: #ccdcee"/>
    <path d="M292.69,62.17c.35-.31.85-.33.93.07s-.45.08-.67.21C292.93,62.46,292.79,62.27,292.69,62.17Z" style="fill: #ccdcee"/>
    <path d="M298.65,63a.34.34,0,0,1-.29.44s-.16-.11-.15-.15A.34.34,0,0,1,298.65,63Z" style="fill: #ccdcee"/>
    <path d="M300.16,63a.34.34,0,0,1,.44.29s-.11.16-.15.15A.34.34,0,0,1,300.16,63Z" style="fill: #ccdcee"/>
    <path d="M291.66,64a.35.35,0,0,1,.3-.44s.16.11.15.14A.36.36,0,0,1,291.66,64Z" style="fill: #ccdcee"/>
    <path d="M301.9,64c-.23-.16-.23-.33,0-.49C302.13,63.63,302.13,63.8,301.9,64Z" style="fill: #ccdcee"/>
    <path d="M293.66,62.47a.35.35,0,0,1,.45.29s-.11.16-.15.15A.35.35,0,0,1,293.66,62.47Z" style="fill: #ccdcee"/>
    <path d="M297.65,64.46a.35.35,0,0,1-.44-.3s.11-.15.15-.14A.34.34,0,0,1,297.65,64.46Z" style="fill: #ccdcee"/>
    <path d="M313.06,28H301.24V22.69l.67-.6h11.15Z" style="fill: #ccdcee"/>
    <path d="M301.24,29.57h11.81v4.9h-11.2l-.61-.61Z" style="fill: #ccdcee"/>
    <path d="M123.39,97.81V93h11.83a6.81,6.81,0,0,1,.11,2.28c0,.81,0,1.63,0,2.54Z" style="fill: #ccdcee"/>
    <path d="M126.84,100.89c-.06-.31.16-.66-.29-1-1.57.35-1.43,1.91-1.94,3-.54-.45,0-1.29-.69-1.71a1.19,1.19,0,0,1-.41-1.73h11.64c.38.35.18.82.08,1.31-.47.27-.48-.71-1.13-.53l-.58,1.09c-.54.49.69.66.23,1.44-.7.16-.75-1-1.41-.87-.13.7-.88.9-1.2,1.56l-1.49-3-.73.61c-.27.63.37.75.33,1.15-.45.28-.94.09-1.41.15l-.29-.12a2,2,0,0,1-.61-1.08Z" style="fill: #ccdcee"/>
    <path d="M127.45,105.29l-.11-.53c.29-.68,1.23-.25,1.34-.9l2.93,1.08.68-1h3.38c.45.67-.13.91-.48,1.34Z" style="fill: #ccdcee"/>
    <path d="M125.16,103.32c.7.92,1.26,1.09,1.19,1.68-.09.13-.19.37-.26.36-.91-.09-2,.43-2.72-.75C123.87,104,125.07,105,125.16,103.32Z" style="fill: #ccdcee"/>
    <path d="M127.84,102.39c-.47,1.21-1.32,0-2,.41.2-.79.22-1.54,1-1.91C127.43,101.22,127.31,102,127.84,102.39Z" style="fill: #ccdcee"/>
    <path d="M109.11,78.93l-1.74-1.74V76c2.16,0,4.32,0,6.43,0,.32,1.23-1.31,1.25-.92,2.21C111.7,79.15,110.39,78.91,109.11,78.93Z" style="fill: #ccdcee"/>
    <path d="M113.85,74.88H107a4.21,4.21,0,0,1,1.69-2.44,1.64,1.64,0,0,0,1.52-.49C111.42,72,112.84,73.06,113.85,74.88Z" style="fill: #ccdcee"/>
    <path d="M116,94l1.11-1c.92-.07,1.57.12,1.79,1a1.32,1.32,0,0,1-1.5,1Z" style="fill: #ccdcee"/>
    <path d="M97.45,94.92c.1-1.8.1-1.8,1.71-2a2.68,2.68,0,0,1,.15,1.83C98.76,95.05,98.18,94.84,97.45,94.92Z" style="fill: #ccdcee"/>
    <path d="M268.6,56.48H252.29V49.15s0,0,.09-.08a.47.47,0,0,1,.22-.07h16Z" style="fill: #ccdcee"/>
    <path d="M257.2,61c-.06-.31.16-.67-.28-1-1.43.17-1.27,1.72-2,2.51L253.51,61l-1.22-.13V57.6H268.6v3.84l-.85-.48c-.81,0-1,1.35-2.06,1-.06-.3.14-.65-.26-1-.47.65-1.44.88-1.24,2-.78-.29-1.62.52-2-.54.3-.07.66.15.92-.17,0-.16.13-.38.06-.46-.39-.48-.81-.92-1.26-1.42l-.4,1c-.91.35-1-.73-1.69-.82-.35.62,0,1.46-.17,2.19-.48.35-1,.13-1.46.19-.33-.86.5-1.52.51-2.23C257.93,60,257.72,61.07,257.2,61Z" style="fill: #ccdcee"/>
    <path d="M252.82,67.38c-.31-1-1-1.77-.37-2.95a5,5,0,0,0,3.14.48c.86.19,1,1.16,1.73,1.06.46-.14.35-.52.45-.91h3.8c.14.35-.2.38-.3.59.06.09.12.27.21.3a.73.73,0,0,0,.83-.37c.43-.12.54.59.89.43.76-.32.37-1.37,1.6-1.39.91.65,2.4.24,4,.38-.94.72-.43,1.61-.75,2.38Z" style="fill: #ccdcee"/>
    <path d="M251.75,47.91v-.83h17.33l.19.25-1.06.12.38.46Z" style="fill: #ccdcee"/>
    <path d="M268.19,62.71a3.08,3.08,0,0,1-1.94,1.18l.63-1.36C267.33,62.51,267.81,62.26,268.19,62.71Z" style="fill: #ccdcee"/>
    <path d="M257.14,61V62.8a.63.63,0,0,1-.94-.08C256.12,61.94,256.89,61.57,257.14,61Z" style="fill: #ccdcee"/>
    <path d="M265.39,62.93c-.31-.35-.33-.84.08-.92s.07.44.21.66A1.69,1.69,0,0,1,265.39,62.93Z" style="fill: #ccdcee"/>
    <path d="M252.24,62.17c.35-.31.84-.33.92.07s-.44.08-.66.21C252.48,62.46,252.33,62.27,252.24,62.17Z" style="fill: #ccdcee"/>
    <path d="M258.2,63a.35.35,0,0,1-.3.44s-.15-.11-.15-.15A.35.35,0,0,1,258.2,63Z" style="fill: #ccdcee"/>
    <path d="M251.21,64a.35.35,0,0,1,.3-.44s.15.11.14.14A.35.35,0,0,1,251.21,64Z" style="fill: #ccdcee"/>
    <path d="M253.21,62.47a.34.34,0,0,1,.44.29s-.11.16-.15.15A.34.34,0,0,1,253.21,62.47Z" style="fill: #ccdcee"/>
    <path d="M262.19,62.46a.34.34,0,0,1-.44-.29s.11-.16.15-.15A.34.34,0,0,1,262.19,62.46Z" style="fill: #ccdcee"/>
    <path d="M181.15,93a4.1,4.1,0,0,1,.13,1.68,2.75,2.75,0,0,1-1.83.15C179.37,93.1,179.41,93.06,181.15,93Z" style="fill: #ccdcee"/>
    <path d="M259.25,84.34v-.83h2.05l1.36.83Z" style="fill: #ccdcee"/>
    <ellipse cx="273.18" cy="90.66" rx="0.6" ry="1.67" style="fill: #ccdcee"/>
    <path d="M248.12,91.86h-.82v-2.4h.82Z" style="fill: #ccdcee"/>
    <path d="M265.15,18.14V27h-5.29s0,0-.08-.09a.42.42,0,0,1-.08-.21V18.14Z" style="fill: #ccdcee"/>
    <path d="M171.75,95.48v2.33h-6.83a6.79,6.79,0,0,1-.09-2.33Z" style="fill: #ccdcee"/>
    <path d="M159.76,95.48v2.33h-7.33a6.79,6.79,0,0,1-.09-2.33Z" style="fill: #ccdcee"/>
    <path d="M258.11,94.86h-4.82V90a7.42,7.42,0,0,1,2.28-.1c.82,0,1.64,0,2.54,0Z" style="fill: #ccdcee"/>
    <path d="M257.4,105.84h-4.11V101.5a7.33,7.33,0,0,1,2.27-.11c.82,0,1.64,0,2.55,0v3.85Z" style="fill: #ccdcee"/>
    <path d="M267.61,94.86h-4.83V90a7.49,7.49,0,0,1,2.29-.1c.82,0,1.64,0,2.54,0Z" style="fill: #ccdcee"/>
    <path d="M267.65,101.47v3.7l-.64.64h-4.2v-4.34Z" style="fill: #ccdcee"/>
    <path d="M132.34,101.89h-1.26l-.67-1.37a1.39,1.39,0,0,1,1.41.09A1.28,1.28,0,0,1,132.34,101.89Z" style="fill: #a6cbff"/>
    <path d="M127.84,102.39h-1v-1.5c.52.09.73-1,1.42-.34C128.74,101.28,127.37,101.64,127.84,102.39Z" style="fill: #a6cbff"/>
  </g>
</svg>
