<svg class="logo" width="227" height="59" viewBox="0 0 227 59" fill="none" xmlns="http://www.w3.org/2000/svg">

<path class="logo__symbol" d="M1.87254 1.29632e-05H8.21406C8.71068 1.29632e-05 9.18697 0.196239 9.53813 0.545498C9.8893 0.894758 10.0866 1.36844 10.0866 1.86237V21.1852L23.6676 12.6627C24.0012 12.4531 24.3928 12.3536 24.7865 12.3784C25.1803 12.4033 25.5561 12.5512 25.8603 12.8011L44.509 28.1638C44.7247 28.3364 44.899 28.5545 45.0194 28.8024C45.1398 29.0503 45.2032 29.3217 45.2051 29.5969V49.4667C45.2033 49.9601 45.0054 50.4327 44.6546 50.7816C44.3039 51.1304 43.8286 51.3272 43.3326 51.3291H20.201C19.7044 51.3291 19.2281 51.1328 18.8769 50.7836C18.5258 50.4343 18.3285 49.9606 18.3285 49.4667V36.6587C18.3276 36.4138 18.3754 36.1712 18.4691 35.9449C18.5629 35.7185 18.7008 35.5128 18.8749 35.3397C19.0489 35.1666 19.2557 35.0295 19.4833 34.9362C19.7109 34.843 19.9548 34.7954 20.201 34.7963H26.807C27.0529 34.7963 27.2964 34.8445 27.5236 34.9381C27.7508 35.0317 27.9572 35.1689 28.1311 35.3418C28.305 35.5147 28.4429 35.72 28.537 35.946C28.6311 36.1719 28.6796 36.4141 28.6796 36.6587V43.3396H37.0955V33.2247L24.4681 22.7568L10.4346 32.2001V49.5082C10.4346 50.0022 10.2374 50.4758 9.88619 50.8251C9.53502 51.1744 9.05874 51.3706 8.56211 51.3706H1.87254C1.37591 51.3706 0.899632 51.1744 0.548466 50.8251C0.1973 50.4758 1.30368e-05 50.0022 1.30368e-05 49.5082V1.86237C-0.000907201 1.61755 0.0468994 1.37499 0.140677 1.14862C0.234454 0.922257 0.372347 0.716588 0.546411 0.54347C0.720474 0.370352 0.927265 0.233191 1.15487 0.139923C1.38247 0.0466553 1.62638 -0.000902278 1.87254 1.29632e-05V1.29632e-05Z" fill="url(#paint0_linear_206_185)"/>
<g class="logo__letters">
<path d="M58.0413 49.979V51.5852C58.0413 51.7045 57.9936 51.819 57.9088 51.9034C57.8239 51.9878 57.7088 52.0352 57.5888 52.0352H55.5005C55.3817 52.0334 55.2684 51.9852 55.185 51.901C55.1017 51.8168 55.055 51.7034 55.055 51.5852V29.7215C55.055 29.6034 55.1017 29.4899 55.185 29.4058C55.2684 29.3216 55.3817 29.2734 55.5005 29.2715H57.6932C57.8132 29.2715 57.9283 29.3189 58.0132 29.4033C58.098 29.4877 58.1457 29.6022 58.1457 29.7215V39.0264C58.8449 38.2768 59.6926 37.6793 60.6355 37.2718C61.5784 36.8643 62.596 36.6555 63.624 36.6586C65.7158 36.6586 67.7218 37.4851 69.2009 38.9561C70.68 40.4272 71.5109 42.4223 71.5109 44.5027C71.5109 46.5831 70.68 48.5782 69.2009 50.0493C67.7218 51.5203 65.7158 52.3467 63.624 52.3467C62.5781 52.3666 61.5399 52.1658 60.5776 51.7577C59.6154 51.3496 58.7509 50.7434 58.0413 49.979V49.979ZM68.281 44.5027C68.2604 43.4987 67.942 42.5231 67.3658 41.6985C66.7895 40.8739 65.9811 40.237 65.0421 39.8678C64.1031 39.4987 63.0754 39.4137 62.088 39.6236C61.1006 39.8335 60.1976 40.3288 59.4923 41.0475C58.7871 41.7661 58.311 42.676 58.124 43.6628C57.937 44.6497 58.0474 45.6695 58.4412 46.5941C58.8351 47.5188 59.4948 48.3071 60.3377 48.8601C61.1805 49.413 62.1689 49.706 63.1785 49.7021C63.8579 49.6976 64.5297 49.5591 65.1549 49.2947C65.7801 49.0303 66.3464 48.6451 66.8209 48.1616C67.2955 47.678 67.6689 47.1056 67.9195 46.4776C68.1701 45.8495 68.293 45.1783 68.281 44.5027V44.5027Z" fill="currentColor"/>
<path d="M75.7224 29.2715C76.1322 29.2715 76.5253 29.4335 76.8151 29.7217C77.1049 30.0099 77.2677 30.4009 77.2677 30.8085V30.8085C77.2686 31.0106 77.2293 31.2109 77.152 31.3978C77.0746 31.5846 76.9608 31.7544 76.8172 31.8973C76.6735 32.0402 76.5027 32.1534 76.3148 32.2303C76.1269 32.3072 75.9256 32.3464 75.7224 32.3455V32.3455C75.5192 32.3464 75.3178 32.3072 75.1299 32.2303C74.942 32.1534 74.7713 32.0402 74.6276 31.8973C74.4839 31.7544 74.3701 31.5846 74.2928 31.3978C74.2154 31.2109 74.1761 31.0106 74.177 30.8085V30.8085C74.177 30.4009 74.3398 30.0099 74.6296 29.7217C74.9195 29.4335 75.3125 29.2715 75.7224 29.2715ZM74.7478 36.9633H76.69C76.7658 36.9633 76.841 36.9781 76.9111 37.007C76.9812 37.0359 77.0449 37.0782 77.0985 37.1316C77.1522 37.1849 77.1947 37.2483 77.2237 37.318C77.2528 37.3877 77.2677 37.4625 77.2677 37.5379V51.4675C77.2677 51.543 77.2528 51.6177 77.2237 51.6874C77.1947 51.7571 77.1522 51.8204 77.0985 51.8738C77.0449 51.9272 76.9812 51.9695 76.9111 51.9984C76.841 52.0272 76.7658 52.0421 76.69 52.0421H74.7478C74.5958 52.0403 74.4506 51.979 74.3438 51.8714C74.2369 51.7638 74.177 51.6187 74.177 51.4675V37.5379C74.177 37.3867 74.2369 37.2416 74.3438 37.134C74.4506 37.0264 74.5958 36.9651 74.7478 36.9633V36.9633Z" fill="currentColor"/>
<path d="M81.7576 29.2715H83.3934C83.4878 29.2714 83.5813 29.2903 83.6681 29.3273C83.7549 29.3642 83.8333 29.4183 83.8984 29.4863C83.9635 29.5543 84.014 29.6348 84.0469 29.7228C84.0798 29.8109 84.0943 29.9046 84.0895 29.9984V51.3151C84.0895 51.4987 84.0162 51.6748 83.8856 51.8046C83.7551 51.9345 83.578 52.0074 83.3934 52.0074H81.7576C81.6633 52.0121 81.569 51.9977 81.4805 51.965C81.392 51.9323 81.3111 51.8821 81.2427 51.8173C81.1743 51.7526 81.1199 51.6746 81.0828 51.5883C81.0456 51.502 81.0266 51.409 81.0267 51.3151V29.9984C81.0217 29.9016 81.0372 29.8049 81.0721 29.7145C81.1071 29.624 81.1607 29.5419 81.2296 29.4733C81.2985 29.4048 81.3811 29.3514 81.4721 29.3167C81.563 29.2819 81.6603 29.2665 81.7576 29.2715V29.2715Z" fill="currentColor"/>
<path d="M88.6073 29.2715H90.2292C90.3236 29.2714 90.4171 29.2904 90.5039 29.3273C90.5907 29.3642 90.669 29.4183 90.7341 29.4863C90.7993 29.5543 90.8498 29.6348 90.8826 29.7229C90.9155 29.8109 90.93 29.9047 90.9253 29.9985V51.3151C90.9253 51.4988 90.852 51.6748 90.7214 51.8047C90.5909 51.9345 90.4138 52.0075 90.2292 52.0075H88.5933C88.4087 52.0075 88.2317 51.9345 88.1011 51.8047C87.9706 51.6748 87.8972 51.4988 87.8972 51.3151V29.9985C87.8924 29.9035 87.9074 29.8085 87.9411 29.7196C87.9748 29.6306 88.0266 29.5495 88.0932 29.4813C88.1598 29.4131 88.2398 29.3592 88.3283 29.3232C88.4167 29.2871 88.5117 29.2695 88.6073 29.2715Z" fill="currentColor"/>
<path d="M102.759 49.979V51.3636C102.759 51.5472 102.686 51.7233 102.555 51.8531C102.425 51.983 102.248 52.0559 102.063 52.0559H100.462C100.277 52.0559 100.1 51.983 99.9697 51.8531C99.8391 51.7233 99.7658 51.5472 99.7658 51.3636V29.9708C99.7658 29.7872 99.8391 29.611 99.9697 29.4812C100.1 29.3514 100.277 29.2784 100.462 29.2784H102.146C102.331 29.2784 102.508 29.3514 102.639 29.4812C102.769 29.611 102.843 29.7872 102.843 29.9708V39.0264C103.54 38.2769 104.387 37.6795 105.329 37.272C106.27 36.8645 107.287 36.6556 108.314 36.6586C110.406 36.6586 112.412 37.485 113.891 38.9561C115.37 40.4271 116.201 42.4223 116.201 44.5027C116.201 46.583 115.37 48.5782 113.891 50.0492C112.412 51.5203 110.406 52.3467 108.314 52.3467C107.273 52.3613 106.24 52.1581 105.283 51.7502C104.326 51.3423 103.466 50.7388 102.759 49.979V49.979ZM112.999 44.5027C112.978 43.4987 112.66 42.5231 112.084 41.6985C111.507 40.8739 110.699 40.237 109.76 39.8678C108.821 39.4986 107.793 39.4137 106.806 39.6236C105.818 39.8334 104.915 40.3288 104.21 41.0474C103.505 41.7661 103.029 42.676 102.842 43.6628C102.655 44.6496 102.765 45.6694 103.159 46.5941C103.553 47.5188 104.213 48.3071 105.055 48.8601C105.898 49.413 106.887 49.7059 107.896 49.7021C108.576 49.6985 109.248 49.5607 109.874 49.2966C110.499 49.0325 111.066 48.6473 111.541 48.1636C112.016 47.6798 112.389 47.1071 112.639 46.4787C112.889 45.8502 113.012 45.1785 112.999 44.5027V44.5027Z" fill="currentColor"/>
<path d="M131.299 39.0263V37.6417C131.299 37.4581 131.373 37.282 131.503 37.1522C131.634 37.0223 131.811 36.9494 131.996 36.9494H133.59C133.774 36.9494 133.951 37.0223 134.082 37.1522C134.212 37.282 134.286 37.4581 134.286 37.6417V51.3221C134.286 51.5057 134.212 51.6818 134.082 51.8116C133.951 51.9414 133.774 52.0144 133.59 52.0144H131.996C131.811 52.0144 131.634 51.9414 131.503 51.8116C131.373 51.6818 131.299 51.5057 131.299 51.3221V49.8682C130.6 50.6475 129.741 51.2698 128.781 51.6935C127.821 52.1173 126.781 52.3329 125.731 52.3259C123.639 52.3259 121.633 51.4995 120.154 50.0285C118.675 48.5574 117.844 46.5622 117.844 44.4819C117.844 42.4015 118.675 40.4063 120.154 38.9353C121.633 37.4642 123.639 36.6378 125.731 36.6378C126.775 36.6252 127.811 36.8314 128.77 37.2429C129.73 37.6544 130.592 38.262 131.299 39.0263V39.0263ZM121.06 44.5027C121.08 45.5067 121.399 46.4822 121.975 47.3068C122.551 48.1314 123.36 48.7683 124.299 49.1375C125.238 49.5067 126.265 49.5917 127.253 49.3818C128.24 49.1719 129.143 48.6765 129.848 47.9579C130.554 47.2392 131.03 46.3293 131.217 45.3425C131.404 44.3557 131.293 43.3359 130.899 42.4112C130.506 41.4865 129.846 40.6982 129.003 40.1453C128.16 39.5923 127.172 39.2994 126.162 39.3033C125.48 39.3032 124.805 39.4383 124.176 39.7008C123.547 39.9632 122.977 40.3477 122.5 40.8319C122.022 41.316 121.646 41.89 121.394 42.5203C121.142 43.1505 121.019 43.8245 121.032 44.5027H121.06Z" fill="currentColor"/>
<path d="M139.917 52.0421H138.26C138.076 52.0421 137.899 51.9692 137.768 51.8393C137.638 51.7095 137.564 51.5334 137.564 51.3498V37.6625C137.564 37.4789 137.638 37.3028 137.768 37.173C137.899 37.0431 138.076 36.9702 138.26 36.9702H139.792C139.977 36.9702 140.154 37.0431 140.284 37.173C140.415 37.3028 140.488 37.4789 140.488 37.6625V39.5179C141.323 37.9187 142.994 36.9633 145.249 36.9633H145.946V39.8156H145.389C142.98 39.8156 140.627 40.8611 140.627 44.4612V51.329C140.63 51.4228 140.614 51.5163 140.579 51.6036C140.545 51.6909 140.492 51.7704 140.426 51.8371C140.36 51.9038 140.28 51.9563 140.193 51.9916C140.105 52.0268 140.012 52.044 139.917 52.0421Z" fill="currentColor"/>
<path d="M150.387 52.0421H148.702C148.517 52.0421 148.34 51.9692 148.21 51.8393C148.079 51.7095 148.006 51.5334 148.006 51.3498V37.6625C148.006 37.4789 148.079 37.3028 148.21 37.173C148.34 37.0431 148.517 36.9702 148.702 36.9702H150.234C150.418 36.9702 150.595 37.0431 150.726 37.173C150.856 37.3028 150.93 37.4789 150.93 37.6625V39.5179C151.765 37.9187 153.436 36.9633 155.698 36.9633H156.394V39.8156H155.837C153.422 39.8156 151.069 40.8611 151.069 44.4612V51.329C151.072 51.4205 151.056 51.5116 151.023 51.5971C150.99 51.6826 150.941 51.7608 150.877 51.8271C150.814 51.8934 150.738 51.9466 150.654 51.9835C150.569 52.0204 150.479 52.0403 150.387 52.0421Z" fill="currentColor"/>
<path d="M159.178 36.9633H160.863C161.048 36.9633 161.225 37.0362 161.355 37.1661C161.486 37.2959 161.559 37.472 161.559 37.6556V51.336C161.559 51.5196 161.486 51.6957 161.355 51.8255C161.225 51.9553 161.048 52.0283 160.863 52.0283H159.178C158.994 52.0283 158.817 51.9553 158.686 51.8255C158.556 51.6957 158.482 51.5196 158.482 51.336V37.6625C158.481 37.571 158.499 37.4803 158.533 37.3955C158.568 37.3107 158.619 37.2335 158.684 37.1685C158.748 37.1034 158.826 37.0519 158.91 37.0166C158.995 36.9814 159.086 36.9633 159.178 36.9633ZM159.909 29.2161C160.319 29.2161 160.712 29.3781 161.002 29.6663C161.292 29.9545 161.455 30.3455 161.455 30.7531C161.453 31.1602 161.289 31.55 161 31.8379C160.711 32.1257 160.319 32.2882 159.909 32.2901C159.499 32.2901 159.105 32.1284 158.814 31.8403C158.523 31.5523 158.359 31.1613 158.357 30.7531V30.7531C158.357 30.5507 158.397 30.3502 158.475 30.1633C158.553 29.9764 158.668 29.8067 158.812 29.6638C158.956 29.521 159.128 29.408 159.316 29.3311C159.504 29.2543 159.706 29.2152 159.909 29.2161V29.2161Z" fill="currentColor"/>
<path d="M166.028 36.9632H167.56C167.744 36.9632 167.921 37.0362 168.052 37.166C168.182 37.2959 168.256 37.472 168.256 37.6556V38.8671C168.835 38.1619 169.568 37.5963 170.398 37.2126C171.229 36.829 172.136 36.6372 173.052 36.6517C173.847 36.6263 174.639 36.7617 175.38 37.0495C176.121 37.3374 176.796 37.7718 177.363 38.3264C177.931 38.8811 178.379 39.5445 178.682 40.2764C178.984 41.0084 179.134 41.7937 179.122 42.5849V51.329C179.122 51.5126 179.049 51.6887 178.918 51.8185C178.787 51.9484 178.61 52.0213 178.426 52.0213H176.741C176.557 52.0213 176.38 51.9484 176.249 51.8185C176.118 51.6887 176.045 51.5126 176.045 51.329V43.2773C176.081 42.7858 176.016 42.2922 175.852 41.8272C175.688 41.3622 175.429 40.9358 175.092 40.5746C174.755 40.2134 174.347 39.9252 173.893 39.7279C173.439 39.5306 172.949 39.4285 172.453 39.4279C171.934 39.4132 171.416 39.5016 170.932 39.6879C170.447 39.8742 170.004 40.1547 169.63 40.5131C169.255 40.8715 168.956 41.3005 168.75 41.7751C168.544 42.2497 168.435 42.7603 168.43 43.2773V51.3775C168.43 51.5611 168.356 51.7372 168.226 51.867C168.095 51.9968 167.918 52.0698 167.734 52.0698H166.049C165.864 52.0698 165.687 51.9968 165.557 51.867C165.426 51.7372 165.353 51.5611 165.353 51.3775V37.6625C165.351 37.4812 165.421 37.3065 165.547 37.1757C165.673 37.045 165.846 36.9687 166.028 36.9632Z" fill="currentColor"/>
<path d="M189.647 56.3138C190.85 56.26 191.985 55.7431 192.813 54.8725C193.64 54.0018 194.095 52.8454 194.081 51.6475V48.9959C193.442 49.6522 192.678 50.1743 191.832 50.5311C190.987 50.8879 190.078 51.0721 189.16 51.0729C187.24 51.0729 185.398 50.3143 184.041 48.964C182.683 47.6137 181.92 45.7823 181.92 43.8727C181.92 41.963 182.683 40.1317 184.041 38.7814C185.398 37.4311 187.24 36.6725 189.16 36.6725C190.107 36.657 191.047 36.8373 191.921 37.202C192.794 37.5666 193.582 38.1077 194.234 38.791V37.6763C194.234 37.4927 194.308 37.3166 194.438 37.1868C194.569 37.057 194.746 36.984 194.93 36.984H196.462C196.646 36.984 196.823 37.057 196.954 37.1868C197.085 37.3166 197.158 37.4927 197.158 37.6763V51.5852C197.158 55.6768 194.311 58.9653 189.396 58.9653C186.243 58.9653 183.201 57.3868 182.129 54.4652C182.096 54.3736 182.083 54.276 182.09 54.179C182.098 54.0819 182.126 53.9875 182.172 53.902C182.219 53.8164 182.283 53.7415 182.361 53.6823C182.439 53.6231 182.528 53.5808 182.623 53.5583L184.238 53.1498C184.401 53.109 184.572 53.1279 184.722 53.2029C184.872 53.2779 184.989 53.4041 185.053 53.5583C185.442 54.4308 186.091 55.1633 186.913 55.6562C187.735 56.1491 188.689 56.3787 189.647 56.3138V56.3138ZM184.955 43.8519C184.946 44.4527 185.058 45.0493 185.285 45.6062C185.512 46.1631 185.849 46.669 186.276 47.0939C186.703 47.5188 187.212 47.8541 187.772 48.0797C188.332 48.3053 188.931 48.4167 189.536 48.4074C190.137 48.4074 190.733 48.2896 191.288 48.0606C191.844 47.8317 192.349 47.4962 192.774 47.0731C193.2 46.6501 193.537 46.1479 193.767 45.5952C193.997 45.0425 194.116 44.4501 194.116 43.8519C194.116 43.2537 193.997 42.6613 193.767 42.1086C193.537 41.5559 193.2 41.0537 192.774 40.6307C192.349 40.2077 191.844 39.8721 191.288 39.6431C190.733 39.4142 190.137 39.2964 189.536 39.2964C188.931 39.2889 188.332 39.4019 187.772 39.6286C187.213 39.8554 186.704 40.1913 186.278 40.6165C185.851 41.0418 185.514 41.5477 185.287 42.1046C185.059 42.6615 184.947 43.258 184.955 43.8588V43.8519Z" fill="currentColor"/>
<path d="M214.609 47.4312C214.709 47.4589 214.801 47.5082 214.879 47.5756C214.957 47.643 215.018 47.7268 215.06 47.8209C215.101 47.915 215.121 48.0171 215.118 48.1197C215.114 48.2223 215.088 48.323 215.041 48.4143C214.33 49.6484 213.295 50.6673 212.047 51.3623C210.799 52.0573 209.384 52.4024 207.955 52.3606C206.902 52.3963 205.853 52.219 204.871 51.8394C203.89 51.4598 202.996 50.8859 202.244 50.1524C201.492 49.4189 200.898 48.5411 200.498 47.5723C200.097 46.6035 199.899 45.5639 199.915 44.5165C199.915 43.4761 200.124 42.4462 200.529 41.4868C200.933 40.5273 201.525 39.6573 202.271 38.9275C203.016 38.1976 203.9 37.6225 204.871 37.2353C205.842 36.8482 206.881 36.6569 207.927 36.6725C208.949 36.6393 209.967 36.8089 210.923 37.1714C211.878 37.5339 212.751 38.0822 213.491 38.784C214.231 39.4859 214.823 40.3274 215.233 41.2593C215.642 42.1912 215.861 43.195 215.876 44.2119V45.3542H202.915C203.056 46.4138 203.522 47.404 204.252 48.1892C204.981 48.9744 205.936 49.516 206.987 49.7397C208.038 49.9634 209.132 49.8583 210.121 49.4388C211.109 49.0193 211.943 48.306 212.507 47.3966C212.582 47.2551 212.705 47.1439 212.853 47.0821C213.002 47.0202 213.167 47.0115 213.322 47.0574L214.609 47.4312ZM203.103 42.8896H212.744C212.464 41.8297 211.838 40.8919 210.966 40.223C210.093 39.5541 209.022 39.1917 207.92 39.1925C206.819 39.1841 205.747 39.5421 204.874 40.2095C204.001 40.8769 203.378 41.8154 203.103 42.8757V42.8896Z" fill="currentColor"/>
<path d="M220.972 52.0421H219.287C219.103 52.0421 218.926 51.9692 218.795 51.8393C218.664 51.7095 218.591 51.5334 218.591 51.3498V37.6625C218.591 37.4789 218.664 37.3028 218.795 37.173C218.926 37.0431 219.103 36.9702 219.287 36.9702H220.819C221.003 36.9702 221.18 37.0431 221.311 37.173C221.441 37.3028 221.515 37.4789 221.515 37.6625V39.5179C222.35 37.9187 224.021 36.9633 226.283 36.9633H226.979V39.8156H226.422C224.007 39.8156 221.654 40.8611 221.654 44.4612V51.329C221.657 51.4205 221.641 51.5116 221.608 51.5971C221.575 51.6826 221.526 51.7608 221.462 51.8271C221.399 51.8934 221.323 51.9466 221.239 51.9835C221.155 52.0204 221.064 52.0403 220.972 52.0421Z" fill="currentColor"/>
</g>
<defs>
<linearGradient id="paint0_linear_206_185" x1="0.0417791" y1="50.3252" x2="31.0831" y2="16.0114" gradientUnits="userSpaceOnUse">
<stop stop-color="#3020FF"/>
<stop offset="0.16" stop-color="#3146FE"/>
<stop offset="0.51" stop-color="#35A4FC"/>
<stop offset="0.54" stop-color="#35ADFC"/>
<stop offset="1" stop-color="#B8EFF9"/>
</linearGradient>

</defs>
</svg>
